<svg version="1.0" xmlns="http://www.w3.org/2000/svg"
 width="3000px" height="3000px" viewBox="0 0 3000 3000"
 preserveAspectRatio="xMidYMid meet">

<g transform="translate(0.000000,3000) scale(0.100000,-0.100000)"
fill="#000000" stroke="none">
<path d="M12861 21169 c-24 -27 -25 -35 -26 -151 0 -93 -6 -146 -24 -218 -12
-52 -24 -99 -25 -105 -1 -5 -4 -14 -7 -20 -4 -5 -9 -23 -13 -39 -10 -40 -67
-156 -78 -156 -4 0 -8 -5 -8 -10 0 -9 -34 -51 -82 -102 -10 -10 -23 -18 -30
-18 -7 0 -28 -11 -47 -24 -45 -30 -95 -37 -279 -37 -475 1 -506 7 -667 123
-26 20 -131 103 -135 108 -6 8 -108 89 -144 114 -15 11 -36 27 -46 36 -10 9
-31 25 -45 36 -15 10 -36 27 -47 37 -12 9 -24 17 -28 17 -3 0 -15 9 -27 19
-25 23 -140 84 -159 84 -8 0 -14 4 -14 8 0 4 -15 11 -32 15 -43 10 -37 9 -88
23 -25 8 -56 15 -70 17 -14 2 -50 7 -80 11 -101 16 -348 5 -407 -18 -13 -5
-23 -7 -23 -4 0 2 -30 -5 -67 -16 -74 -20 -193 -77 -193 -90 0 -5 -7 -9 -15
-9 -8 0 -23 -10 -34 -22 l-20 -21 27 -50 c14 -27 37 -54 49 -60 12 -5 25 -18
28 -28 7 -22 38 -33 66 -24 69 22 186 26 266 10 55 -12 151 -46 183 -66 8 -5
44 -23 80 -41 36 -17 68 -36 72 -42 5 -6 8 -7 8 -1 0 6 3 5 8 -1 4 -6 25 -21
47 -33 22 -12 65 -39 95 -62 30 -22 66 -47 80 -57 14 -9 30 -20 35 -25 63 -49
133 -100 177 -128 29 -19 63 -43 76 -54 12 -10 55 -38 95 -62 40 -23 77 -46
82 -50 75 -61 270 -149 375 -170 90 -18 223 -22 296 -10 124 22 235 54 286 83
15 8 31 15 35 15 5 0 53 23 108 51 88 45 113 64 210 163 300 305 369 455 370
815 0 91 -3 176 -7 190 -3 14 -7 28 -7 32 -2 14 -91 47 -123 46 -22 -1 -40
-10 -57 -29z"/>
<path d="M8465 20159 c-218 -62 -449 -235 -589 -441 -74 -109 -110 -195 -202
-478 -122 -379 -147 -443 -199 -510 -25 -33 -52 -60 -60 -60 -8 0 -22 -8 -32
-18 -53 -54 -354 -267 -440 -311 -54 -27 -162 -21 -229 11 -113 55 -156 94
-288 258 -61 76 -153 238 -168 298 -4 12 -13 22 -22 22 -9 0 -16 5 -16 10 0 6
-11 10 -25 10 -14 0 -25 -4 -25 -10 0 -5 -6 -10 -14 -10 -17 0 -66 -73 -66
-99 0 -40 51 -168 111 -275 103 -185 186 -285 302 -365 54 -37 217 -111 294
-134 28 -8 66 -23 84 -34 28 -15 55 -18 159 -17 69 1 160 9 203 17 152 31 320
114 414 205 82 80 170 207 220 321 14 31 45 100 69 153 24 54 96 235 159 403
144 385 220 536 343 681 45 53 121 114 143 114 7 0 32 9 56 21 31 15 45 28 48
47 3 15 10 41 15 58 6 17 10 55 10 86 0 50 -2 56 -22 61 -57 11 -167 5 -233
-14z"/>
</g>
</svg>
