<svg version="1.0" xmlns="http://www.w3.org/2000/svg"
 width="3000px" height="3000px" viewBox="0 0 3000 3000"
 preserveAspectRatio="xMidYMid meet">

<g transform="translate(0.000000,3000) scale(0.100000,-0.100000)"
fill="#000000" stroke="none">
<path d="M10411 18176 c-17 -21 -29 -160 -35 -423 -4 -127 -10 -242 -14 -254
-14 -36 -35 136 -38 303 -2 128 0 152 17 185 25 48 24 80 -1 88 -33 11 -58
-12 -77 -71 -9 -31 -19 -51 -21 -45 -2 6 -14 11 -27 11 -22 0 -24 5 -31 80
l-7 80 -33 0 -34 0 0 -58 c0 -32 11 -122 25 -200 30 -172 30 -172 5 -172 -15
0 -22 -9 -27 -31 -11 -56 -25 -5 -21 79 l3 77 -27 3 c-22 3 -29 10 -34 37 -3
18 -3 46 0 62 10 45 -5 57 -62 50 -57 -7 -62 0 -62 80 0 44 -19 60 -55 47 -31
-12 -14 -135 43 -314 49 -153 79 -319 46 -258 -23 45 -134 327 -134 342 0 31
-13 46 -41 46 -23 0 -31 6 -43 35 -13 29 -20 35 -45 35 -42 0 -51 -35 -22 -90
28 -54 26 -64 -6 -34 -51 47 -106 46 -111 -3 -3 -30 -4 -31 -42 -26 -36 5 -40
3 -46 -21 -4 -15 -1 -37 5 -49 6 -12 22 -42 36 -67 35 -65 31 -69 -15 -14 -69
83 -100 135 -100 170 0 35 -17 48 -55 38 -48 -12 -39 -93 20 -170 30 -39 31
-44 5 -44 -12 0 -17 5 -14 14 3 7 -3 21 -12 31 -14 14 -28 16 -68 11 -28 -3
-59 -6 -68 -6 -12 0 -19 -11 -24 -35 -4 -24 -12 -35 -24 -35 -22 0 -30 -20
-30 -73 0 -43 13 -70 81 -169 20 -29 61 -93 93 -141 57 -89 89 -114 127 -102
11 4 19 13 19 20 0 20 17 27 32 13 19 -18 77 -56 198 -127 73 -44 121 -65 159
-71 30 -5 57 -7 61 -5 4 3 16 -5 26 -16 36 -40 104 -48 104 -13 0 8 5 12 10 9
6 -3 10 -28 10 -56 0 -42 -3 -49 -19 -49 -28 0 -35 -35 -14 -70 14 -25 24 -30
54 -30 42 0 43 2 54 90 l7 54 20 -38 c19 -38 21 -38 66 -33 58 6 75 26 119
140 l31 81 41 -3 c39 -2 42 -1 57 35 9 21 18 53 21 71 7 39 15 42 32 9 11 -20
10 -33 -4 -77 -23 -69 -33 -83 -52 -68 -24 21 -63 -5 -63 -41 0 -36 38 -80 70
-80 13 0 20 -7 20 -19 0 -22 25 -34 52 -26 25 9 43 46 64 138 12 52 25 82 36
88 44 24 87 159 177 554 63 276 106 433 122 450 5 5 9 24 9 42 0 31 -2 33 -33
33 -31 0 -34 -3 -57 -65 -14 -37 -26 -61 -28 -55 -2 5 -18 10 -36 10 -37 0
-90 -43 -107 -87 -7 -20 -94 -472 -126 -660 -4 -22 -11 -33 -22 -33 -15 0 -16
8 -9 73 4 39 17 122 28 182 12 61 25 140 30 176 5 36 18 105 29 153 25 106 26
132 5 140 -22 8 -54 -2 -54 -18 0 -8 -12 -11 -35 -8 -31 4 -35 1 -40 -24 -13
-59 -15 -46 -10 82 4 114 3 133 -11 138 -23 9 -30 8 -43 -8z"/>
</g>
</svg>
