<svg version="1.0" xmlns="http://www.w3.org/2000/svg"
 width="3000px" height="3000px" viewBox="0 0 3000 3000"
 preserveAspectRatio="xMidYMid meet">

<g transform="translate(0.000000,3000) scale(0.100000,-0.100000)"
fill="#000000" stroke="none">
<path d="M12278 21419 c-46 -21 -57 -37 -58 -89 0 -14 -7 -34 -15 -44 -18 -23
-18 -75 -1 -131 14 -49 -6 -128 -30 -118 -25 9 -72 -17 -84 -48 -7 -16 -10
-43 -7 -59 5 -23 1 -35 -19 -55 -24 -24 -26 -31 -19 -80 8 -65 -4 -91 -45
-100 -17 -4 -35 -16 -42 -28 -6 -12 -14 -24 -18 -27 -7 -6 -53 -100 -70 -145
-6 -16 -19 -41 -30 -55 -15 -20 -21 -23 -31 -12 -32 31 -95 -2 -105 -55 -4
-19 -2 -51 4 -69 10 -32 8 -35 -18 -49 -56 -29 -49 -101 25 -254 19 -38 64
-165 102 -282 51 -158 75 -219 94 -239 15 -14 30 -36 34 -49 19 -61 84 -131
121 -131 30 0 72 45 84 92 6 20 15 40 20 43 6 3 10 21 10 38 0 25 8 39 36 61
36 29 36 29 31 92 -4 51 -2 64 10 64 29 0 63 47 63 89 0 29 7 47 23 63 13 13
28 32 34 42 10 18 12 18 41 -2 16 -12 36 -22 43 -22 22 0 79 51 79 71 0 11 9
32 20 47 17 23 18 32 9 67 -6 22 -17 54 -24 70 -26 61 -75 184 -75 190 0 3 9
1 19 -5 33 -17 71 -11 97 15 14 14 29 25 33 25 18 0 61 50 61 71 0 11 -15 57
-34 100 -34 78 -34 79 -12 79 36 0 66 40 66 87 0 91 -176 558 -226 599 -13 11
-38 48 -54 81 -27 58 -52 83 -82 83 -7 -1 -34 -10 -60 -21z"/>
<path d="M6797 19200 c-14 -11 -32 -20 -40 -20 -8 0 -20 -6 -27 -14 -6 -8 -18
-12 -26 -9 -25 9 -72 -17 -84 -48 -16 -37 -6 -99 18 -119 12 -9 44 -97 87
-235 37 -121 85 -274 106 -339 22 -66 39 -125 39 -131 0 -7 14 -31 30 -53 25
-35 36 -42 64 -42 35 0 55 16 79 62 l14 28 18 -61 c20 -65 43 -89 87 -89 18 0
28 -5 28 -14 0 -8 9 -21 20 -29 11 -7 38 -49 61 -93 54 -103 109 -158 151
-152 32 5 54 -8 114 -71 31 -32 59 -42 151 -58 25 -4 37 0 57 21 14 14 26 21
26 16 0 -12 54 -40 77 -40 11 0 26 -15 38 -36 23 -44 89 -104 113 -104 24 0
44 17 76 65 31 48 32 69 5 114 -26 42 -14 56 14 16 70 -98 125 -120 172 -69
22 24 24 34 22 94 -3 63 -6 71 -43 112 -50 58 -124 198 -164 315 -18 51 -39
98 -47 105 -9 7 -32 13 -53 13 -35 0 -38 2 -71 63 -36 68 -70 102 -101 102
-26 0 -68 -29 -68 -47 0 -11 -6 -8 -18 8 -13 15 -30 23 -55 23 -21 1 -37 6
-37 13 0 16 -49 53 -70 53 -12 0 -23 16 -36 52 -23 65 -58 86 -110 70 -19 -5
-36 -7 -38 -4 -2 4 -25 58 -51 121 -33 77 -54 115 -66 118 -11 3 -19 9 -19 14
0 5 -11 9 -25 9 -14 0 -25 -5 -25 -11 0 -13 -95 -2 -122 15 -13 8 -23 8 -37
-1 -20 -13 -27 -1 -66 127 -44 140 -104 190 -168 140z"/>
</g>
</svg>
