<svg version="1.0" xmlns="http://www.w3.org/2000/svg"
 width="3000px" height="3000px" viewBox="0 0 3000 3000"
 preserveAspectRatio="xMidYMid meet">

<g transform="translate(0.000000,3000) scale(0.100000,-0.100000)"
fill="#000000" stroke="none">
<path d="M12243 21490 c-12 -5 -23 -21 -26 -37 -18 -91 -17 -103 2 -145 20
-46 95 -338 88 -345 -3 -2 -8 9 -11 24 -19 78 -55 111 -108 98 -19 -5 -32 0
-51 19 -28 28 -53 32 -91 15 -31 -15 -39 -46 -31 -128 8 -76 26 -130 89 -265
52 -110 80 -189 74 -208 -4 -11 -111 197 -171 334 -23 50 -29 58 -61 64 -45 8
-84 -15 -92 -55 -6 -28 -7 -28 -35 -14 -55 27 -119 -7 -119 -65 0 -12 7 -38
14 -57 14 -33 14 -35 -4 -35 -10 0 -22 -5 -26 -11 -4 -7 -22 -9 -49 -5 -59 9
-91 -5 -105 -49 -14 -43 -7 -65 55 -170 70 -117 68 -110 26 -110 -21 0 -44 8
-56 18 -32 30 -111 76 -240 142 -656 336 -667 341 -712 393 -25 29 -39 36 -72
38 -23 1 -47 6 -54 11 -22 17 -75 35 -94 31 -11 -2 -28 4 -38 12 -10 8 -35 15
-57 15 -33 0 -45 -6 -64 -30 -28 -34 -33 -30 -60 45 -30 83 -34 90 -58 101
-37 17 -74 3 -98 -37 -18 -30 -25 -34 -48 -29 -28 6 -48 -1 -115 -39 -40 -23
-40 -23 -83 -4 -58 24 -78 23 -107 -7 -14 -13 -25 -20 -25 -15 0 10 -57 40
-77 40 -7 0 -13 -4 -13 -10 0 -5 -7 -10 -15 -10 -9 0 -20 -11 -26 -24 -20 -44
-84 -40 -132 8 -28 28 -56 33 -88 16 -20 -11 -49 -60 -49 -84 0 -8 -11 -32
-25 -52 -28 -42 -31 -73 -11 -113 15 -27 14 -28 -18 -38 -20 -6 -40 -7 -47 -2
-26 16 -60 9 -84 -17 -22 -24 -24 -24 -29 -6 -4 11 -20 25 -36 32 -41 17 -87
-2 -108 -46 -8 -19 -25 -37 -36 -40 -12 -3 -29 -16 -38 -27 -9 -12 -31 -26
-50 -32 -18 -6 -37 -21 -42 -32 -5 -11 -24 -25 -41 -31 -36 -14 -65 -58 -65
-101 0 -37 -18 -78 -47 -108 -13 -12 -23 -26 -23 -30 0 -9 -15 -18 -66 -42
-135 -62 -169 -91 -240 -201 -16 -25 -55 -81 -88 -124 -112 -149 -265 -386
-271 -420 -5 -22 -1 -44 10 -66 16 -31 16 -34 -9 -90 -14 -32 -26 -65 -26 -74
0 -9 -25 -76 -55 -149 -57 -138 -64 -171 -41 -202 12 -16 11 -25 -6 -64 -11
-26 -26 -54 -35 -63 -15 -17 -14 -55 1 -103 6 -18 3 -20 -38 -20 -25 0 -50 -5
-57 -12 -18 -18 -23 -96 -9 -139 42 -132 245 -554 343 -713 12 -20 15 -32 8
-30 -7 3 -27 29 -44 59 -16 30 -48 87 -70 125 -127 226 -277 565 -307 693 -10
42 -18 56 -42 68 -33 17 -68 13 -91 -11 -14 -13 -16 -10 -22 27 -9 53 -46 92
-83 85 -15 -2 -35 -8 -45 -12 -14 -6 -20 -2 -24 13 -13 49 -105 50 -130 1 -12
-22 -13 -20 -13 29 0 43 -5 58 -25 77 -13 14 -35 25 -48 25 -22 0 -25 5 -35
81 -11 76 -10 82 9 109 38 50 12 112 -62 149 -22 11 -33 11 -61 1 -33 -12 -68
-56 -68 -85 0 -8 -11 -25 -25 -39 -39 -39 -34 -103 30 -358 31 -122 58 -224
60 -228 2 -4 16 -51 30 -105 33 -123 71 -218 95 -240 11 -10 33 -20 51 -24 26
-5 38 -18 71 -76 22 -39 47 -77 57 -85 10 -8 34 -49 54 -90 20 -41 42 -82 49
-91 33 -40 98 -51 130 -22 10 9 20 14 22 12 1 -2 22 -32 45 -67 45 -67 77 -87
123 -78 21 4 30 0 39 -15 6 -12 27 -38 46 -60 44 -49 95 -54 133 -14 l24 25
25 -24 c60 -55 105 -60 155 -15 l35 30 22 -43 c32 -64 106 -164 134 -182 33
-22 78 -20 100 4 10 11 30 20 45 20 17 0 39 12 61 34 l34 35 28 -52 c81 -153
194 -255 253 -228 20 9 34 9 61 -1 30 -11 39 -10 76 10 23 12 47 22 53 22 6 0
23 9 38 21 20 16 26 29 26 62 1 42 1 42 19 20 11 -13 22 -54 30 -110 7 -48 15
-98 18 -111 6 -25 49 -52 83 -52 29 0 70 44 70 75 0 30 11 32 35 5 10 -11 33
-25 51 -32 19 -7 34 -15 34 -18 0 -3 15 -23 34 -43 28 -31 40 -37 74 -37 23 0
45 6 52 15 11 13 17 11 47 -15 40 -35 79 -39 116 -10 16 13 28 16 32 10 12
-20 65 -11 92 16 21 22 24 31 19 62 -4 20 -10 54 -13 76 l-6 39 48 -8 c36 -5
56 -15 77 -37 27 -30 30 -30 91 -24 60 7 116 20 148 36 9 5 22 4 30 -1 26 -16
58 -9 84 18 33 37 32 59 -11 156 -19 44 -34 92 -32 106 3 24 5 23 27 -19 31
-58 99 -148 122 -160 10 -6 27 -10 38 -10 14 0 21 -9 26 -32 12 -56 33 -86 64
-93 72 -16 114 31 92 104 -16 56 -14 68 14 75 14 4 33 19 43 35 l17 29 30 -40
c53 -71 125 -89 170 -43 14 13 25 31 25 39 0 9 9 20 21 26 11 7 25 24 30 40 9
25 17 29 72 39 74 13 107 43 107 97 0 36 -36 84 -62 84 -7 0 -19 10 -26 21
-13 21 -13 21 9 5 13 -9 33 -16 45 -16 16 0 30 -13 48 -44 36 -62 81 -92 115
-80 16 6 36 6 52 1 39 -14 77 -1 99 36 11 17 20 27 20 22 0 -11 51 -45 68 -45
6 0 24 12 41 26 42 35 40 64 -8 158 -33 64 -37 76 -22 76 27 0 71 53 78 93 5
31 1 40 -26 67 -17 17 -31 41 -31 53 0 12 -11 46 -25 75 -27 58 -25 72 6 72
11 0 29 4 39 10 15 8 22 4 40 -25 43 -69 101 -85 147 -39 33 33 28 67 -21 148
l-35 59 19 25 c23 28 25 58 7 88 -6 12 -27 46 -44 75 -18 30 -33 56 -33 59 0
4 15 4 34 2 51 -6 90 35 84 86 -3 23 1 46 10 60 18 28 10 72 -22 115 -13 18
-35 52 -48 77 -14 25 -39 69 -57 98 -17 29 -31 65 -31 81 0 16 -18 55 -40 90
-33 51 -36 59 -16 44 13 -10 39 -43 57 -73 90 -153 145 -210 202 -210 15 0 41
13 62 31 29 26 35 38 35 71 0 32 -6 46 -31 69 -17 16 -37 29 -44 29 -7 0 -15
7 -19 15 -8 21 11 19 45 -6 42 -30 88 -23 114 18 11 18 25 32 31 33 21 0 54
47 54 77 0 17 7 36 15 43 17 14 20 56 5 65 -5 3 -10 15 -10 25 0 10 -12 32
-26 47 -15 15 -38 45 -52 66 -30 46 -21 62 26 45 41 -16 81 -2 102 34 13 25
13 32 -3 74 -15 42 -16 49 -2 70 8 13 15 34 15 46 1 15 7 6 20 -27 30 -76 69
-99 124 -73 42 19 44 65 6 174 l-32 94 31 29 c40 38 41 76 1 126 l-30 37 33
39 c18 21 45 47 59 59 15 11 32 37 38 58 7 20 16 41 21 47 5 5 9 19 9 32 0 16
6 23 19 23 11 0 30 13 43 28 20 24 28 27 48 20 30 -11 85 7 105 35 8 12 15 36
15 53 0 30 3 33 42 39 47 8 98 51 98 83 0 11 -11 42 -24 69 -70 140 -181 411
-205 499 -13 47 -50 78 -86 72 -21 -4 -25 1 -38 51 -9 31 -18 71 -22 89 -9 46
-58 64 -112 42z m-2367 -750 c12 0 33 9 48 21 l26 20 58 -26 c84 -38 151 -83
199 -132 24 -24 52 -43 63 -43 11 0 23 -8 27 -17 3 -10 20 -49 38 -88 57 -123
65 -145 58 -175 -7 -38 15 -93 75 -181 59 -89 86 -134 110 -184 11 -22 49
-101 85 -175 61 -127 120 -299 193 -565 33 -118 57 -149 110 -143 28 3 34 1
34 -15 0 -10 -9 -30 -20 -44 -11 -14 -20 -36 -20 -49 0 -13 -5 -24 -10 -24
-24 0 -60 -50 -60 -81 0 -18 -7 -40 -15 -49 -24 -27 -30 -84 -12 -128 16 -39
16 -39 -8 -35 -32 7 -65 -14 -77 -48 -5 -16 -14 -29 -19 -29 -6 0 -21 -11 -34
-25 -31 -30 -32 -71 -5 -149 l19 -56 -24 -37 c-14 -20 -25 -40 -25 -44 0 -5
-13 -6 -29 -3 -18 4 -42 0 -62 -10 -18 -9 -38 -16 -45 -16 -20 0 -73 -50 -93
-87 l-18 -35 -21 50 c-12 28 -22 63 -22 79 0 43 -48 137 -78 151 -37 17 -46
15 -81 -17 -26 -24 -31 -36 -31 -75 0 -45 -1 -46 -32 -46 -27 0 -36 6 -48 33
-27 58 -84 59 -153 4 -35 -27 -46 -89 -23 -127 23 -37 86 -169 85 -178 -1 -13
-93 -44 -128 -43 -18 0 -42 -4 -52 -9 -15 -8 -22 -5 -34 14 -9 13 -27 27 -41
30 -37 10 -104 -14 -114 -40 -5 -13 -21 -25 -39 -29 -24 -5 -35 -18 -65 -79
-20 -40 -36 -85 -36 -99 0 -21 -5 -27 -22 -27 -13 0 -42 -11 -65 -25 -32 -17
-52 -22 -77 -18 -51 8 -86 -29 -87 -94 l0 -48 -44 86 c-24 47 -51 109 -61 138
-10 31 -26 59 -40 68 -33 21 -87 10 -109 -23 l-17 -26 -19 31 c-10 17 -21 42
-25 55 -7 27 -53 51 -84 43 -11 -3 -20 -1 -20 4 0 5 -18 28 -41 51 -40 43 -67
99 -358 741 -82 181 -150 359 -162 422 -6 31 -17 56 -30 66 -19 14 -20 22 -14
75 6 55 39 187 105 417 21 74 41 117 81 177 30 44 59 80 65 80 6 0 25 7 43 16
37 18 55 55 46 95 -5 21 -2 29 12 33 37 12 153 138 153 166 0 21 19 40 42 40
34 0 67 23 73 50 5 21 11 27 25 23 32 -8 65 5 111 43 24 19 52 42 62 50 9 7
17 27 17 44 0 33 27 54 51 39 20 -12 50 -11 79 4 17 9 32 11 47 4 49 -22 123
27 123 81 0 20 8 35 23 45 21 13 25 13 46 -4 37 -30 115 -22 126 12 4 10 12
19 19 19 7 0 21 9 31 20 12 13 26 17 44 14 33 -6 88 27 96 59 l6 24 37 -18
c20 -11 46 -19 58 -19z"/>
</g>
</svg>
