<svg version="1.0" xmlns="http://www.w3.org/2000/svg"
 width="3000px" height="3000px" viewBox="0 0 3000 3000"
 preserveAspectRatio="xMidYMid meet">

<g transform="translate(0.000000,3000) scale(0.100000,-0.100000)"
fill="#000000" stroke="none">
<path d="M10270 21254 c-8 -1 -36 -5 -62 -9 -50 -6 -62 -21 -52 -61 5 -19 13
-24 40 -24 19 0 34 -4 34 -10 0 -15 39 -32 60 -25 38 12 61 92 35 119 -16 16
-24 17 -55 10z"/>
<path d="M9585 21221 c-3 -11 -3 -31 0 -44 6 -22 3 -26 -22 -29 -37 -4 -71
-67 -57 -107 8 -22 15 -26 49 -26 l40 0 9 53 c7 40 13 52 23 47 41 -15 61 -15
77 0 23 23 20 38 -14 73 -16 18 -30 36 -30 42 0 5 -15 10 -34 10 -25 0 -36 -5
-41 -19z"/>
<path d="M12314 21111 c-4 -17 -10 -31 -15 -31 -5 0 -9 -16 -9 -35 0 -37 0
-37 80 -49 57 -9 64 2 54 76 l-9 63 -48 3 c-46 3 -47 2 -53 -27z"/>
<path d="M10527 21093 c-13 -23 -16 -66 -6 -84 8 -16 18 -20 39 -17 21 3 30 0
33 -14 4 -12 15 -18 35 -18 43 0 80 50 67 91 -8 25 -70 26 -84 2 -9 -15 -10
-12 -11 15 0 30 -2 32 -34 32 -19 0 -37 -3 -39 -7z"/>
<path d="M9782 20999 c-12 -19 -19 -20 -78 -14 -61 7 -64 6 -64 -14 0 -17 -6
-21 -35 -21 -38 0 -61 -27 -50 -60 5 -17 16 -20 65 -20 41 0 64 5 75 16 13 13
28 15 67 11 48 -6 52 -5 84 29 37 37 37 38 28 72 -9 31 -73 32 -92 1z"/>
<path d="M11990 20989 c-6 -11 -9 -25 -7 -32 2 -7 -5 -29 -15 -49 -27 -51 -17
-78 27 -78 25 0 37 7 50 27 18 27 18 27 28 6 13 -29 28 -34 70 -22 37 10 51
30 42 60 -5 15 -16 19 -49 19 -36 0 -45 4 -54 25 -7 14 -12 35 -12 45 0 29
-65 28 -80 -1z"/>
<path d="M12450 20823 c-14 -9 -29 -23 -33 -30 -4 -7 -22 -13 -40 -13 -71 0
-93 -18 -81 -67 6 -23 10 -25 52 -20 30 3 51 12 61 26 11 14 23 19 37 15 27
-7 80 19 94 46 6 12 8 30 5 40 -8 25 -60 27 -95 3z"/>
<path d="M8580 20718 c0 -50 19 -61 116 -66 74 -4 84 -7 84 -24 0 -13 14 -25
46 -38 64 -28 90 -26 108 8 8 15 15 22 16 16 0 -17 68 -46 90 -39 15 5 20 15
20 41 0 31 -4 37 -36 50 -42 18 -70 11 -80 -18 -3 -11 -9 -16 -13 -11 -11 16
-119 66 -129 59 -5 -3 -12 3 -15 13 -3 14 -17 20 -58 24 -30 3 -75 9 -101 13
l-48 7 0 -35z"/>
<path d="M12058 20683 c-31 -5 -88 -54 -88 -76 0 -27 31 -49 59 -42 14 4 28
10 31 14 10 16 50 31 82 31 63 0 78 9 78 46 l0 34 -67 -1 c-38 -1 -80 -4 -95
-6z"/>
<path d="M12697 20593 c-4 -3 -7 -39 -7 -79 0 -64 -3 -75 -20 -84 -26 -14 -42
-54 -34 -86 11 -44 93 -21 95 27 0 8 5 -2 12 -21 10 -30 17 -35 49 -38 29 -3
38 1 43 17 3 11 1 30 -6 42 -6 12 -9 38 -5 60 6 39 -11 69 -40 69 -10 0 -14
13 -14 50 l0 50 -33 0 c-19 0 -37 -3 -40 -7z"/>
<path d="M8190 20489 c-36 -13 -63 -62 -55 -99 4 -18 13 -30 22 -30 14 0 14
-2 0 -18 -26 -29 -21 -68 11 -90 61 -42 102 -39 102 8 0 39 -31 90 -55 91 -11
0 -14 3 -7 6 6 2 12 15 12 29 0 17 7 25 25 30 20 5 25 12 25 39 0 44 -25 54
-80 34z"/>
<path d="M11576 20449 c-11 -26 -14 -53 -10 -75 7 -37 45 -74 76 -74 14 0 18
-5 13 -19 -9 -30 5 -51 35 -51 16 0 32 5 35 10 3 6 13 10 21 10 26 0 48 31 51
69 2 20 5 55 9 79 l6 42 -34 0 c-43 0 -74 -31 -87 -85 -8 -35 -9 -36 -10 -11
-1 16 -8 34 -17 40 -12 9 -13 17 -4 40 16 44 5 66 -35 66 -29 0 -35 -5 -49
-41z"/>
<path d="M12355 20217 c-24 -18 -27 -99 -4 -122 24 -24 111 -31 132 -10 9 9
17 23 17 30 0 21 -29 45 -56 45 -20 0 -24 5 -24 29 0 39 -31 52 -65 28z"/>
<path d="M11783 19815 c-26 -11 -33 -20 -33 -41 0 -25 -2 -26 -36 -21 -20 4
-45 2 -54 -3 -21 -11 -33 -51 -24 -85 13 -53 124 -19 124 39 0 19 4 24 15 20
21 -8 74 15 85 37 14 25 12 35 -6 53 -19 19 -29 19 -71 1z"/>
<path d="M12565 19640 c-11 -5 -35 -9 -53 -9 -52 -1 -72 -17 -72 -56 l0 -35
53 -2 c81 -3 94 -1 116 18 26 22 29 79 5 88 -19 7 -24 7 -49 -4z"/>
<path d="M13366 19569 c-30 -35 -32 -51 -11 -72 8 -8 12 -17 9 -20 -3 -2 -2
-16 2 -31 5 -22 12 -26 40 -26 47 0 64 35 57 118 l-6 62 -32 0 c-25 0 -40 -8
-59 -31z"/>
<path d="M12848 19493 c-38 -4 -38 -5 -38 -49 0 -47 1 -48 63 -59 32 -5 41 -2
63 22 18 19 24 36 22 57 -3 28 -7 31 -38 32 -19 1 -52 -1 -72 -3z"/>
<path d="M13178 19493 c-10 -2 -18 -11 -18 -19 0 -8 -10 -14 -24 -14 -19 0
-27 -8 -35 -33 -16 -48 -6 -67 35 -67 19 0 34 5 34 10 0 6 11 10 24 10 28 0
41 15 50 56 10 48 -16 70 -66 57z"/>
<path d="M11821 19201 c-27 -90 -15 -120 43 -105 17 4 25 19 39 73 22 82 16
101 -28 101 -32 0 -34 -2 -54 -69z"/>
<path d="M11694 19203 c-11 -27 -14 -53 -9 -90 6 -52 7 -53 40 -53 39 0 41 4
51 108 l7 72 -37 0 c-32 0 -37 -4 -52 -37z"/>
<path d="M12240 18953 c-22 -9 -30 -24 -30 -60 0 -37 23 -49 64 -33 15 5 29
10 31 10 1 0 -1 -17 -6 -37 -13 -57 -4 -73 40 -73 37 0 37 0 48 54 16 78 9 99
-33 94 -30 -3 -34 -1 -34 18 0 30 -38 43 -80 27z"/>
<path d="M11890 18713 c-8 -3 -25 -17 -38 -31 -18 -21 -31 -26 -60 -24 -48 3
-58 -5 -65 -55 -7 -41 8 -73 34 -73 21 0 49 21 49 36 0 12 6 15 23 10 35 -9
60 3 90 41 48 63 29 119 -33 96z"/>
<path d="M11903 18542 c-17 -11 -33 -58 -33 -97 0 -30 -3 -33 -34 -39 -36 -7
-52 -30 -40 -60 15 -38 116 -25 130 17 4 11 12 27 19 34 20 19 30 133 14 144
-17 11 -40 11 -56 1z"/>
<path d="M7803 18500 c-26 -30 -52 -101 -52 -143 -1 -38 -1 -38 36 -35 36 3
38 5 64 73 33 83 34 89 13 109 -21 21 -41 20 -61 -4z"/>
<path d="M7439 18190 c-64 -19 -110 -80 -93 -123 11 -29 62 -21 94 13 17 18
38 30 54 30 24 0 26 4 26 39 0 32 -4 40 -22 45 -26 7 -25 7 -59 -4z"/>
<path d="M10620 18115 c-16 -17 -24 -37 -24 -62 0 -24 -7 -44 -23 -59 -48 -48
-20 -108 38 -85 45 17 72 51 65 82 -4 21 1 36 19 56 13 16 25 23 25 17 1 -33
104 -19 115 15 14 46 -23 70 -82 50 -28 -9 -38 -9 -41 0 -7 21 -67 12 -92 -14z"/>
<path d="M7705 18114 c-18 -18 -14 -53 10 -90 15 -23 79 -37 127 -27 24 5 28
10 28 38 0 34 -13 45 -52 45 -11 0 -31 11 -44 25 -27 29 -46 31 -69 9z"/>
<path d="M11534 18056 c-37 -14 -88 -55 -97 -80 -4 -10 -5 -28 -1 -39 5 -16
12 -19 46 -14 23 3 44 10 47 15 3 5 16 12 28 16 25 8 63 51 63 72 0 16 -28 44
-43 43 -7 -1 -26 -6 -43 -13z"/>
<path d="M10835 18017 c-4 -12 -3 -65 0 -117 3 -52 5 -116 5 -141 -1 -40 2
-47 21 -52 37 -10 79 3 83 27 14 74 8 155 -14 178 -15 16 -20 36 -20 75 l0 53
-35 0 c-28 0 -36 -5 -40 -23z"/>
<path d="M7533 17888 c-17 -8 -23 -20 -23 -43 0 -30 -1 -31 -39 -28 -61 5 -88
-36 -61 -88 26 -47 129 3 116 56 -5 19 -3 23 8 19 23 -9 85 15 97 37 18 35 2
59 -39 58 -20 0 -47 -5 -59 -11z"/>
<path d="M10226 17784 c-3 -9 -6 -26 -6 -40 0 -17 -7 -25 -25 -30 -20 -5 -25
-12 -25 -38 0 -31 13 -51 51 -79 10 -7 20 -23 23 -37 3 -14 3 -19 0 -12 -3 6
-21 12 -40 12 -28 0 -36 -5 -45 -26 -14 -38 -3 -62 31 -69 25 -5 30 -12 30
-35 0 -27 15 -40 46 -40 8 0 31 15 50 34 24 24 41 32 58 29 24 -5 56 19 56 42
0 20 -28 45 -51 45 -16 0 -18 5 -13 24 4 18 0 30 -15 42 -11 10 -18 21 -15 26
13 20 -8 48 -36 48 -16 0 -32 5 -35 10 -3 6 5 10 19 10 44 0 56 10 56 46 0 24
-5 34 -15 34 -8 0 -15 5 -15 10 0 17 -77 12 -84 -6z"/>
<path d="M10406 17765 c-19 -19 -20 -29 -6 -56 8 -14 6 -25 -6 -44 -18 -28
-12 -75 11 -75 8 0 15 -12 17 -27 3 -26 6 -28 50 -26 28 1 54 8 64 17 8 9 20
16 25 16 12 0 11 50 -2 89 -9 24 -17 31 -37 31 -23 0 -27 4 -28 31 -1 35 -10
45 -45 54 -18 4 -31 1 -43 -10z"/>
<path d="M8832 17654 c-18 -12 -36 -14 -87 -9 -45 5 -65 4 -65 -4 0 -6 -16
-11 -35 -11 -29 0 -37 -5 -46 -27 -5 -15 -8 -37 -5 -49 11 -43 69 -42 80 1 l6
24 48 -17 c26 -9 53 -23 60 -29 18 -18 49 -16 64 2 7 9 18 21 24 28 15 17 34
54 34 66 0 13 -29 41 -43 41 -7 0 -23 -7 -35 -16z"/>
<path d="M8193 17543 c-7 -2 -13 -11 -13 -19 0 -8 -4 -14 -9 -14 -14 0 -22
-29 -15 -56 5 -20 12 -24 46 -24 31 0 41 4 45 20 3 13 14 20 28 20 43 0 55 10
55 46 l0 34 -62 -1 c-35 0 -69 -3 -75 -6z"/>
<path d="M7892 17523 c-17 -7 -42 -57 -42 -86 0 -14 7 -28 16 -31 20 -8 64 3
64 16 0 6 14 8 35 4 56 -11 75 0 75 39 0 31 -3 35 -37 44 -61 15 -97 20 -111
14z"/>
<path d="M8816 17454 c-35 -34 -3 -79 49 -71 l32 5 -5 -46 c-2 -26 -11 -54
-18 -63 -8 -8 -14 -30 -14 -47 0 -53 55 -52 113 1 30 29 34 50 13 69 -8 8 -12
26 -9 49 6 41 -18 74 -48 66 -12 -3 -19 0 -19 8 0 21 -29 45 -55 45 -13 0 -31
-7 -39 -16z"/>
<path d="M7484 17396 c-59 -26 -72 -122 -23 -159 18 -13 34 -17 48 -12 19 6
22 13 20 47 -3 31 1 42 16 51 38 20 45 46 19 71 -19 19 -39 20 -80 2z"/>
<path d="M10008 17374 c-20 -9 -38 -24 -41 -35 -4 -16 -9 -18 -29 -9 -16 8
-32 8 -51 1 -22 -9 -27 -17 -27 -46 0 -28 -5 -37 -24 -45 -27 -10 -40 -38 -30
-64 7 -17 39 -21 93 -10 27 6 31 10 31 40 0 20 -5 34 -12 34 -7 0 -5 5 4 11
12 7 24 6 39 -1 14 -8 29 -8 50 -1 24 8 30 7 38 -8 11 -20 86 -46 103 -35 6 4
44 6 84 5 41 -1 74 2 74 7 0 5 21 -1 47 -14 55 -28 66 -29 87 -8 23 22 20 41
-10 69 -34 31 -114 36 -114 8 0 -14 -2 -15 -9 -4 -11 16 -107 33 -130 23 -9
-5 -35 -3 -57 2 -35 9 -39 13 -28 24 18 17 18 37 -2 56 -19 20 -38 19 -86 0z"/>
<path d="M9580 17291 c0 -24 -4 -28 -19 -24 -24 6 -61 -30 -61 -59 0 -45 12
-67 42 -77 53 -19 85 -14 92 13 8 32 -1 53 -25 59 -10 3 -19 12 -19 21 0 12
10 16 44 16 42 0 56 10 56 40 0 21 -34 40 -71 40 -36 0 -39 -2 -39 -29z"/>
<path d="M8426 17275 c-9 -9 -16 -23 -16 -30 0 -24 43 -64 80 -74 l35 -9 -33
-1 c-32 -1 -33 -2 -30 -38 3 -37 4 -38 44 -41 62 -4 95 36 59 72 -8 8 -15 32
-15 53 0 34 -4 40 -38 55 -63 29 -69 30 -86 13z"/>
<path d="M7815 17123 c-55 -14 -37 -83 22 -83 16 0 27 -7 30 -19 11 -43 75
-35 99 11 19 37 10 66 -24 74 -15 3 -37 10 -50 15 -24 9 -44 10 -77 2z"/>
<path d="M9172 17043 c-13 -3 -26 -11 -29 -19 -3 -9 -20 -14 -43 -14 -35 0
-40 -3 -50 -34 -8 -26 -18 -36 -41 -41 -27 -6 -29 -10 -29 -50 0 -40 2 -43 31
-49 50 -10 79 2 79 33 0 35 27 57 72 57 27 0 42 7 57 25 34 41 23 106 -17 98
-4 -1 -17 -4 -30 -6z"/>
<path d="M9395 16888 c-56 -20 -92 -69 -80 -109 9 -28 64 -25 93 5 12 14 36
27 52 31 26 6 30 11 30 40 0 25 -5 34 -22 39 -29 7 -36 7 -73 -6z"/>
<path d="M8818 16870 c-31 -17 -37 -17 -42 -5 -3 9 -18 15 -35 15 -37 0 -49
-31 -32 -83 19 -57 88 -59 161 -5 45 33 39 101 -8 98 -4 -1 -23 -10 -44 -20z"/>
<path d="M8085 16724 c-9 -10 -15 -24 -12 -33 3 -13 -3 -16 -35 -13 -38 4 -38
4 -38 -32 0 -29 5 -39 26 -48 18 -9 30 -9 42 -1 14 9 20 5 32 -21 12 -25 22
-32 52 -34 29 -2 38 1 42 16 9 26 -10 106 -31 140 -30 46 -51 53 -78 26z"/>
</g>
</svg>
