<svg version="1.0" xmlns="http://www.w3.org/2000/svg"
 width="3000px" height="3000px" viewBox="0 0 3000 3000"
 preserveAspectRatio="xMidYMid meet">

<g transform="translate(0.000000,3000) scale(0.100000,-0.100000)"
fill="#000000" stroke="none">
<path d="M10500 21083 c-24 -8 -50 -46 -50 -71 0 -17 34 -58 113 -139 l112
-115 -70 37 c-99 54 -154 92 -198 138 -34 36 -40 39 -74 34 -51 -9 -75 -40
-69 -92 5 -40 30 -70 96 -118 15 -11 7 -9 -18 5 -24 12 -59 37 -77 55 -42 40
-79 56 -116 48 -28 -6 -59 -42 -59 -69 0 -47 86 -126 203 -186 52 -27 69 -32
100 -26 44 8 62 41 52 94 l-6 33 94 -50 c53 -29 107 -51 124 -51 35 0 73 36
73 68 0 12 5 22 10 22 6 0 10 -4 10 -9 0 -13 109 -96 138 -106 44 -13 89 3
102 36 20 48 4 72 -105 157 -57 45 -138 121 -191 182 -104 118 -142 142 -194
123z"/>
<path d="M7888 19664 c-16 -8 -28 -21 -28 -29 0 -20 -5 -19 -34 10 -28 27 -47
30 -94 14 -45 -15 -59 -62 -72 -239 -6 -84 -13 -158 -17 -162 -3 -5 -2 -29 1
-53 6 -38 11 -44 37 -50 46 -10 85 3 99 33 7 15 20 92 30 172 l16 145 8 -134
c6 -103 12 -144 27 -173 24 -48 57 -64 101 -52 26 8 35 17 44 49 9 28 13 33
13 17 2 -65 53 -102 121 -87 24 5 31 13 36 42 4 20 1 51 -6 72 -7 20 -14 108
-17 196 -2 88 -9 172 -15 187 -13 35 -63 47 -107 25 -27 -13 -31 -13 -31 -1 0
15 -39 34 -68 34 -9 -1 -29 -8 -44 -16z"/>
<path d="M10434 18068 c-50 -24 -59 -106 -16 -146 19 -18 43 -66 71 -142 110
-300 140 -350 205 -350 80 0 116 92 59 148 -31 30 -51 74 -124 271 -27 74 -59
151 -71 172 -30 53 -76 71 -124 47z"/>
<path d="M10262 17900 c-24 -10 -42 -46 -42 -86 0 -26 105 -326 135 -384 44
-89 97 -105 153 -47 42 43 42 79 1 120 -22 22 -45 68 -80 166 -27 74 -49 143
-49 154 0 31 -28 74 -52 81 -29 7 -38 7 -66 -4z"/>
<path d="M10030 17873 c-20 -7 -49 -45 -50 -63 0 -8 36 -127 81 -263 88 -269
108 -307 162 -307 38 0 87 44 87 78 0 14 -9 39 -19 56 -20 33 -79 202 -130
372 -17 56 -37 106 -44 113 -17 14 -67 22 -87 14z"/>
</g>
</svg>
