<svg version="1.0" xmlns="http://www.w3.org/2000/svg"
 width="3000px" height="3000px" viewBox="0 0 3000 3000"
 preserveAspectRatio="xMidYMid meet">

<g transform="translate(0.000000,3000) scale(0.100000,-0.100000)"
fill="#000000" stroke="none">
<path d="M15028 17468 c-16 -5 -28 -13 -28 -17 0 -3 -17 -27 -37 -53 -21 -25
-67 -83 -103 -128 -74 -93 -504 -521 -685 -681 -390 -344 -577 -487 -1475
-1125 -515 -367 -518 -368 -611 -416 -46 -23 -113 -59 -148 -80 l-65 -38 -16
43 -15 42 -105 6 c-83 5 -122 2 -185 -13 -144 -33 -300 -81 -319 -97 -10 -9
-44 -47 -74 -85 l-55 -69 -431 6 c-548 8 -1086 36 -1426 72 -158 17 -455 60
-555 80 -38 8 -153 28 -255 45 -311 52 -416 77 -499 120 -60 32 -107 22 -115
-24 -13 -69 11 -94 129 -133 114 -38 136 -44 400 -98 149 -31 598 -104 755
-124 333 -42 1034 -81 1441 -81 135 0 301 -3 368 -7 l122 -6 -6 -41 c-4 -23
-10 -44 -14 -48 -10 -11 -149 -37 -261 -47 -59 -6 -272 -9 -490 -6 -335 3
-425 8 -695 34 -560 55 -603 62 -1010 154 -132 30 -307 67 -390 82 -82 14
-179 36 -213 47 -83 26 -128 19 -137 -21 -9 -43 4 -80 34 -96 15 -7 127 -34
248 -59 122 -25 254 -55 295 -66 222 -62 576 -131 763 -150 61 -6 223 -23 360
-37 234 -26 280 -27 710 -28 428 0 470 2 605 22 80 13 154 25 166 29 19 5 21
-1 33 -78 13 -88 40 -160 71 -193 20 -21 20 -21 -30 -75 -29 -29 -67 -87 -87
-129 -34 -70 -37 -84 -41 -187 -4 -100 -2 -118 21 -182 43 -119 111 -199 214
-251 211 -106 502 -40 627 142 127 185 114 441 -32 598 -63 68 -159 123 -235
134 -26 4 -47 10 -47 14 0 27 29 102 72 188 58 114 55 112 212 153 190 50 539
198 926 392 219 110 310 168 495 318 55 45 179 143 275 218 482 376 898 758
1364 1252 489 518 481 509 481 553 0 46 -23 67 -69 67 -50 0 -72 -10 -82 -36
-9 -24 -232 -258 -688 -724 -309 -314 -749 -710 -1046 -940 -74 -57 -214 -168
-311 -246 -97 -77 -220 -170 -275 -206 -95 -64 -362 -217 -482 -277 -110 -55
-478 -201 -508 -201 -10 0 -41 -7 -68 -15 -27 -8 -51 -13 -53 -11 -8 8 27 53
65 82 20 17 84 56 142 88 58 33 125 71 150 86 25 15 93 52 151 83 59 30 162
91 228 134 67 43 137 87 154 98 66 40 794 560 992 708 555 416 1164 983 1410
1315 42 56 82 102 90 102 17 0 28 49 20 83 -5 17 -18 29 -37 36 -36 13 -44 13
-80 -1z m-3404 -2595 c-49 -74 -136 -234 -168 -307 -44 -104 -102 -294 -111
-368 -4 -34 -13 -59 -21 -62 -8 -3 -14 -1 -14 5 0 6 -9 18 -20 27 -30 26 -100
196 -107 261 -7 70 12 139 69 260 54 113 72 138 119 161 38 20 171 47 238 49
l33 1 -18 -27z m-11 -912 c169 -116 187 -333 40 -479 -75 -75 -130 -97 -238
-97 -103 0 -145 17 -221 87 -138 127 -132 316 14 458 l58 55 70 -14 c83 -17
144 -9 144 18 0 10 3 20 6 24 9 9 81 -20 127 -52z"/>
</g>
</svg>
