<svg version="1.0" xmlns="http://www.w3.org/2000/svg"
 width="3000px" height="3000px" viewBox="0 0 3000 3000"
 preserveAspectRatio="xMidYMid meet">

<g transform="translate(0.000000,3000) scale(0.100000,-0.100000)"
fill="#000000" stroke="none">
<path d="M10850 16184 c-211 -15 -603 -91 -893 -173 -56 -16 -181 -59 -277
-96 -96 -37 -195 -74 -220 -83 -25 -8 -57 -19 -72 -25 -15 -5 -41 -30 -58 -55
-40 -60 -42 -141 -6 -195 13 -19 27 -45 31 -58 10 -30 47 -100 74 -137 11 -17
21 -33 21 -38 0 -18 133 -167 282 -316 l96 -96 -48 -139 c-27 -76 -61 -169
-75 -208 -36 -97 -110 -327 -130 -405 -26 -102 -75 -303 -95 -390 -46 -201
-80 -396 -95 -550 -3 -30 -7 -61 -10 -70 -14 -47 -28 -244 -26 -370 2 -144 22
-281 44 -310 7 -8 23 -36 37 -62 13 -27 28 -48 32 -48 5 0 8 -5 8 -11 0 -6 12
-27 27 -47 44 -58 145 -186 152 -192 3 -3 31 -34 61 -70 30 -36 59 -70 65 -76
5 -6 35 -39 65 -74 30 -35 69 -78 85 -95 17 -18 84 -95 150 -171 154 -177 241
-269 449 -473 176 -172 213 -209 399 -399 130 -133 153 -148 204 -131 29 9 39
21 59 65 24 56 31 122 15 152 -19 37 -31 716 -16 992 2 52 7 160 10 240 7 169
11 206 50 460 21 132 27 170 31 198 4 31 31 169 40 202 16 61 99 334 115 379
19 52 38 112 59 186 4 17 17 62 28 100 68 235 70 247 48 316 -49 155 -46 148
-265 599 -49 101 -175 318 -256 440 -33 49 -35 52 -84 137 -19 32 -45 72 -57
88 -12 17 -29 50 -38 75 l-15 44 71 146 c77 157 83 173 164 392 66 180 69 219
21 271 -32 36 -91 67 -134 72 -12 2 -34 5 -50 7 -15 3 -48 3 -73 2z m-126
-1220 l29 -65 -35 -37 c-19 -20 -82 -95 -138 -166 -57 -71 -144 -167 -193
-215 -141 -136 -206 -202 -287 -292 -102 -113 -289 -299 -302 -299 -6 0 -7 8
-3 18 3 9 13 41 20 70 8 30 19 68 24 85 14 45 57 200 86 307 16 58 68 233 113
377 21 66 33 72 187 77 89 3 137 9 185 26 97 33 175 77 228 131 26 26 49 48
52 48 3 1 18 -29 34 -65z m507 -1123 c0 -73 -32 -357 -47 -417 -12 -50 -45
-106 -112 -194 -57 -73 -174 -244 -317 -463 -36 -56 -77 -98 -329 -338 -59
-57 -162 -164 -229 -238 l-120 -133 -110 113 c-60 63 -120 128 -132 144 -26
33 -103 180 -120 231 -11 29 -10 31 29 49 23 11 55 29 71 40 77 52 270 220
382 332 55 56 247 289 319 388 29 40 45 61 74 93 16 18 186 230 217 270 10 13
38 46 63 72 105 115 139 163 205 292 l40 78 58 -122 c56 -116 59 -124 58 -197z
m-389 -2360 l-3 -209 -42 41 c-24 23 -71 67 -106 99 l-63 56 33 31 c17 17 35
31 38 31 3 0 37 36 75 80 39 44 70 80 70 80 1 0 0 -94 -2 -209z"/>
</g>
</svg>
