<svg version="1.0" xmlns="http://www.w3.org/2000/svg"
 width="3000px" height="3000px" viewBox="0 0 3000 3000"
 preserveAspectRatio="xMidYMid meet">

<g transform="translate(0.000000,3000) scale(0.100000,-0.100000)"
fill="#000000" stroke="none">
<path d="M14657 18170 c-64 -23 -86 -37 -115 -72 -69 -82 -192 -194 -380 -343
-41 -33 -150 -120 -241 -193 -234 -189 -493 -379 -761 -559 -41 -28 -142 -99
-225 -158 -82 -59 -226 -152 -320 -207 -93 -55 -231 -138 -305 -183 -158 -97
-204 -122 -530 -287 -295 -149 -334 -165 -795 -313 -198 -64 -405 -132 -460
-151 -55 -18 -186 -61 -291 -93 -171 -53 -253 -76 -554 -156 -164 -43 -433
-117 -540 -149 -71 -21 -275 -75 -385 -102 -55 -13 -143 -35 -195 -49 -150
-38 -305 -72 -430 -96 -136 -26 -200 -46 -200 -63 0 -18 -70 -106 -84 -106
-27 0 -156 -171 -211 -280 -25 -48 -27 -61 -21 -119 4 -35 11 -71 15 -79 7
-12 -6 -29 -46 -65 -94 -86 -191 -243 -227 -368 -29 -98 -38 -252 -21 -343 40
-205 68 -272 119 -282 19 -3 39 -3 45 1 6 3 11 0 11 -9 0 -23 75 -112 125
-148 43 -31 45 -35 40 -71 -9 -64 1 -84 53 -101 26 -8 124 -20 217 -26 94 -6
212 -16 264 -22 52 -6 131 -8 176 -6 l82 6 -29 -72 c-84 -204 -113 -417 -105
-760 8 -344 56 -740 127 -1031 15 -66 40 -181 55 -255 38 -196 128 -485 240
-770 86 -218 241 -515 307 -586 21 -23 38 -46 38 -52 0 -15 54 -25 89 -17 27
6 32 14 56 88 15 45 40 106 57 136 35 61 36 61 72 -47 60 -175 166 -400 226
-480 45 -59 81 -78 129 -66 42 11 61 42 60 99 -2 73 -11 89 -56 99 -39 9 -44
15 -86 90 -100 180 -218 489 -199 523 10 17 11 16 21 -7 6 -14 15 -32 20 -40
5 -8 34 -67 64 -131 85 -181 192 -324 266 -355 83 -35 139 13 127 110 -7 60
-12 66 -65 73 -34 5 -48 14 -79 52 -72 89 -117 168 -187 331 -16 36 -35 73
-43 82 -12 15 -9 22 34 68 l48 51 45 -93 c56 -112 102 -163 154 -173 69 -13
102 17 114 106 5 36 6 36 38 26 68 -20 115 24 115 109 0 26 3 31 18 27 37 -9
85 11 95 41 12 35 -7 106 -28 106 -8 0 -35 28 -59 63 -25 34 -59 82 -77 106
l-31 43 43 39 c73 65 70 66 113 -14 71 -134 104 -176 141 -183 76 -14 116 30
101 109 -5 26 -13 37 -31 41 -18 5 -40 33 -81 103 l-57 97 33 28 c19 15 37 28
41 28 4 0 17 -28 30 -62 13 -35 47 -116 75 -180 29 -65 55 -131 59 -147 7 -33
42 -47 88 -36 48 13 51 104 5 202 -17 37 -55 122 -85 188 l-53 120 32 27 c37
32 33 36 94 -82 52 -101 147 -262 179 -305 31 -39 71 -51 119 -35 31 10 36 16
42 56 3 25 4 58 0 74 -3 17 -4 30 -1 30 2 0 23 -35 47 -77 159 -282 224 -373
268 -373 70 0 104 61 80 145 -10 35 -18 45 -39 50 -22 5 -48 42 -155 223 -187
314 -235 391 -277 443 l-38 45 75 37 c41 21 80 35 85 31 6 -3 25 -3 44 0 24 5
36 14 46 38 11 27 10 39 -11 99 -17 51 -28 69 -45 73 -12 3 -30 17 -39 31 -16
24 -15 25 8 31 25 6 36 29 36 80 l0 30 43 -10 c41 -9 44 -12 72 -80 48 -119
76 -159 118 -171 28 -8 46 -23 71 -61 70 -103 142 -142 204 -110 58 30 53 128
-7 141 -79 17 -251 352 -256 498 l-2 67 28 0 c15 0 50 5 77 11 48 10 72 34 72
72 0 7 48 102 106 212 342 645 444 896 505 1245 17 99 18 396 0 475 -28 130
-76 235 -107 235 -12 0 -14 11 -12 46 l3 46 260 150 c143 83 406 226 585 318
813 418 1028 541 1387 797 213 151 409 308 578 462 77 70 196 177 265 238 187
165 474 455 526 531 42 62 45 70 40 112 -4 25 -10 46 -14 48 -5 1 -2 35 5 75
18 105 17 301 -3 368 -58 196 -201 324 -401 360 -72 13 -73 14 -73 45 0 47
-47 293 -71 371 -42 137 -82 191 -158 218 -61 21 -104 18 -194 -15z m-3 -403
c46 -101 59 -171 53 -292 -8 -174 -39 -275 -157 -507 -55 -109 -100 -209 -100
-222 0 -61 12 -85 46 -96 76 -26 143 21 227 159 90 146 134 255 157 386 6 39
14 80 16 93 3 13 12 22 22 22 16 0 18 -8 18 -51 -1 -61 20 -83 72 -75 43 6 59
20 67 57 7 33 15 35 53 15 81 -42 185 -202 211 -324 24 -113 19 -128 -70 -243
-187 -240 -300 -357 -605 -624 -324 -284 -619 -510 -889 -681 -319 -203 -682
-426 -845 -521 -281 -163 -703 -399 -816 -456 -312 -156 -1008 -476 -1184
-544 -190 -73 -246 -93 -226 -80 360 232 508 339 589 425 48 52 55 74 36 114
-13 31 -84 62 -122 54 -16 -3 -70 -37 -121 -74 -338 -253 -539 -393 -698 -486
-117 -68 -165 -90 -368 -166 -85 -32 -240 -93 -345 -135 -215 -87 -272 -105
-545 -176 -497 -129 -542 -139 -655 -145 -206 -12 -429 32 -550 109 -202 128
-331 374 -285 544 22 81 111 286 141 324 36 46 51 85 48 129 -1 19 2 48 6 63
7 27 10 25 54 -60 102 -192 190 -282 336 -342 41 -17 91 -43 111 -56 42 -29
64 -31 104 -10 20 11 31 25 36 49 10 58 -11 85 -91 116 -165 63 -224 108 -308
232 -100 149 -112 180 -112 283 0 109 22 178 77 240 21 24 38 53 38 64 0 15 6
21 21 21 11 0 64 11 117 25 53 13 180 41 282 60 102 20 284 61 405 91 198 49
280 70 550 143 44 12 175 51 290 86 116 35 305 91 420 124 221 64 306 90 420
127 39 12 135 43 215 68 524 162 559 175 915 332 72 31 200 87 285 124 85 37
194 86 241 107 257 120 744 439 1329 872 214 158 310 236 705 572 44 38 134
109 200 157 l120 89 17 -27 c9 -16 28 -53 42 -83z m-2889 -3790 c4 -12 2 -34
-3 -48 -6 -14 -8 -64 -5 -111 9 -136 -40 -505 -93 -707 -45 -173 -114 -395
-154 -496 -17 -44 -42 -109 -55 -145 -13 -36 -40 -108 -59 -160 -20 -52 -36
-101 -36 -109 0 -7 -33 -68 -74 -135 -41 -66 -77 -133 -81 -147 -6 -25 -14
-27 -159 -57 -84 -17 -194 -45 -245 -62 -51 -16 -98 -30 -105 -30 -37 0 -393
691 -485 940 -127 346 -163 479 -165 600 -1 47 -5 97 -10 112 -7 25 -4 29 53
57 59 30 61 31 95 15 37 -18 46 -16 330 65 66 20 68 20 73 2 5 -20 31 -31 71
-31 12 0 127 45 255 99 128 55 288 122 357 150 69 29 204 89 300 135 96 46
178 84 182 85 4 1 10 -9 13 -22z m-1886 -674 c17 -105 90 -366 151 -543 163
-468 274 -691 643 -1296 65 -105 117 -196 117 -202 0 -6 -37 -30 -82 -54 -46
-23 -139 -80 -206 -126 -68 -45 -167 -108 -220 -139 -200 -116 -509 -343 -651
-478 -107 -102 -297 -376 -406 -588 -33 -64 -63 -117 -66 -117 -17 0 -248 518
-309 695 -26 77 -70 203 -98 280 -145 409 -218 1034 -182 1565 13 182 14 191
96 568 14 67 24 129 20 137 -3 8 -3 15 0 15 26 0 246 57 345 89 69 22 172 52
229 67 58 14 141 37 186 50 83 25 393 140 402 149 13 13 19 0 31 -72z m816
-2393 c8 -23 20 -36 36 -40 22 -6 86 -99 165 -244 l26 -48 -33 7 c-19 4 -37 9
-41 11 -7 5 -147 241 -176 300 -20 40 -20 58 2 51 5 -2 15 -19 21 -37z"/>
</g>
</svg>
