<svg version="1.0" xmlns="http://www.w3.org/2000/svg"
 width="3000px" height="3000px" viewBox="0 0 3000 3000"
 preserveAspectRatio="xMidYMid meet">

<g transform="translate(0.000000,3000) scale(0.100000,-0.100000)"
fill="#000000" stroke="none">
<path d="M11642 16970 c-246 -65 -437 -274 -580 -635 -22 -55 -42 -117 -46
-137 -6 -35 -10 -38 -41 -38 -88 0 -268 -55 -393 -119 -100 -53 -178 -122
-240 -215 l-50 -74 -73 35 c-114 54 -158 70 -296 104 -106 27 -153 33 -273 37
-140 4 -148 3 -240 -27 -112 -36 -168 -69 -232 -138 -140 -152 -178 -406 -87
-586 48 -93 172 -176 277 -185 l52 -4 0 -143 c0 -220 30 -358 102 -464 57 -83
158 -175 233 -212 63 -31 78 -34 155 -34 94 1 139 14 226 66 181 109 338 329
447 629 43 116 86 210 97 210 13 0 33 58 27 81 -5 18 -2 20 16 15 12 -4 67
-12 123 -18 87 -10 110 -9 167 5 128 31 273 155 346 296 23 44 41 87 41 96 0
12 5 15 18 10 44 -19 153 -26 332 -21 242 6 331 27 525 122 164 80 266 181
327 324 30 69 32 83 31 181 -1 150 -48 280 -136 376 -72 78 -209 130 -319 120
l-56 -5 5 52 c11 105 -50 211 -149 262 -109 55 -213 66 -336 34z m328 -279 c0
-16 -10 -54 -21 -85 -20 -52 -27 -59 -98 -100 -101 -58 -116 -76 -116 -137 0
-58 13 -74 63 -74 31 0 46 8 75 38 38 37 45 40 82 38 11 -1 39 14 62 33 46 40
75 53 148 67 59 11 134 -7 180 -45 l30 -24 -26 5 c-15 3 -36 0 -47 -6 -25 -13
-37 -66 -24 -101 13 -36 -2 -92 -58 -207 -34 -69 -68 -121 -107 -164 -52 -56
-58 -66 -58 -106 0 -54 14 -65 80 -60 45 4 54 10 97 56 58 63 105 146 154 271
31 79 37 108 38 173 l1 78 24 -53 c20 -43 24 -70 25 -148 1 -113 -17 -159 -98
-247 -119 -131 -327 -215 -577 -233 -79 -5 -152 -10 -163 -10 -11 0 7 17 44
41 66 44 80 67 80 129 0 73 -71 82 -146 20 -66 -55 -183 -115 -188 -98 -3 7
-7 37 -11 67 -3 29 -19 80 -36 112 -16 32 -29 64 -29 71 1 56 125 218 187 244
37 16 51 61 34 106 -13 34 -63 45 -118 27 -52 -16 -150 -118 -192 -199 -19
-36 -35 -66 -37 -68 -8 -10 -53 33 -57 54 -8 45 75 234 161 365 55 84 82 111
55 55 -21 -44 -10 -83 28 -105 37 -20 69 -8 128 49 112 106 248 181 346 190
39 4 73 8 78 9 4 0 7 -12 7 -28z m-2185 -926 c146 -25 365 -93 365 -114 0 -3
3 -16 6 -28 5 -19 2 -23 -15 -23 -25 0 -121 -42 -160 -69 -38 -27 -58 -90 -42
-130 13 -30 35 -41 88 -41 50 0 80 16 88 47 8 32 21 43 52 43 17 0 25 -11 41
-60 l19 -59 -36 -12 c-65 -20 -155 -77 -202 -126 -62 -65 -88 -101 -149 -212
-45 -82 -51 -100 -47 -134 7 -49 15 -57 63 -63 57 -7 84 12 103 71 28 85 117
213 186 268 46 37 158 89 165 77 3 -5 -31 -48 -76 -95 -58 -61 -84 -95 -88
-120 -10 -53 1 -83 35 -90 55 -12 84 3 139 71 29 36 68 76 85 90 32 24 50 24
93 -2 3 -2 -74 -205 -114 -299 -52 -122 -117 -218 -214 -315 -146 -146 -241
-181 -348 -128 -53 27 -165 145 -197 208 -37 74 -58 191 -59 331 -1 145 -4
140 96 186 74 35 93 59 84 109 -5 25 -15 37 -42 50 -34 16 -36 16 -104 -15
-39 -17 -74 -31 -78 -31 -10 0 -32 50 -32 72 0 10 11 41 25 68 22 43 44 65
150 153 25 21 30 32 30 71 0 53 -9 65 -56 72 -27 4 -44 -1 -84 -28 -134 -88
-205 -203 -205 -333 0 -36 -3 -65 -7 -65 -18 0 -73 41 -95 72 -50 67 -62 161
-33 273 55 213 270 311 570 260z"/>
</g>
</svg>
