<svg version="1.0" xmlns="http://www.w3.org/2000/svg"
 width="3000px" height="3000px" viewBox="0 0 3000 3000"
 preserveAspectRatio="xMidYMid meet">

<g transform="translate(0.000000,3000) scale(0.100000,-0.100000)"
fill="#000000" stroke="none">
<path d="M6938 26143 c-20 -5 -31 -46 -23 -84 4 -15 22 -45 42 -66 211 -223
423 -490 423 -533 0 -7 -20 -30 -45 -52 -52 -46 -74 -84 -104 -182 -42 -135
-19 -215 68 -244 39 -13 50 -13 97 2 30 9 67 28 83 42 39 33 69 116 79 216 l7
80 63 -47 c139 -105 201 -231 218 -446 l7 -87 -64 -4 c-80 -6 -176 -42 -211
-80 -44 -48 -70 -131 -66 -213 5 -86 23 -125 68 -147 92 -45 218 8 311 130
l26 34 17 -63 c26 -90 35 -216 25 -346 -11 -151 -37 -253 -64 -253 -17 0 -28
-49 -20 -83 10 -40 100 -52 134 -18 66 66 116 404 91 616 -14 116 -40 208 -82
287 -27 51 -30 63 -24 110 4 29 2 103 -4 163 -18 199 -71 332 -173 442 -72 77
-158 136 -232 159 -49 16 -54 20 -74 69 -12 28 -44 85 -71 126 -51 77 -332
404 -389 452 -31 26 -67 32 -113 20z"/>
</g>
</svg>
