<svg version="1.0" xmlns="http://www.w3.org/2000/svg"
 width="3000px" height="3000px" viewBox="0 0 3000 3000"
 preserveAspectRatio="xMidYMid meet">

<g transform="translate(0.000000,3000) scale(0.100000,-0.100000)"
fill="#000000" stroke="none">
<path d="M7594 27192 c-35 -28 -37 -55 -11 -144 41 -138 41 -135 7 -150 -44
-19 -48 -59 -17 -161 28 -87 66 -244 97 -392 10 -49 22 -98 25 -108 6 -14 4
-16 -16 -9 -14 6 -26 23 -34 48 -19 63 -83 181 -107 198 -27 19 -48 20 -82 4
-42 -18 -43 -63 -6 -148 35 -79 105 -290 116 -345 6 -31 4 -35 -16 -35 -12 0
-34 -13 -49 -29 -19 -20 -35 -28 -47 -25 -29 8 -68 -11 -83 -39 -12 -22 -10
-38 14 -131 15 -59 25 -109 23 -112 -12 -12 -36 10 -42 37 -3 17 -19 43 -34
59 -25 25 -36 28 -92 28 -56 0 -67 -3 -92 -28 -25 -26 -27 -33 -22 -77 3 -26
10 -61 15 -77 6 -20 5 -40 -3 -62 -10 -27 -8 -39 11 -84 20 -47 21 -56 10
-101 -12 -45 -11 -51 9 -79 14 -18 39 -97 67 -207 43 -169 54 -235 26 -162
-57 146 -88 214 -116 246 -23 28 -42 71 -69 157 -20 65 -36 134 -36 152 0 58
-64 99 -116 75 -14 -6 -27 -11 -29 -11 -2 0 -13 29 -25 65 -29 87 -48 109 -95
109 -65 0 -95 -72 -64 -151 14 -34 104 -287 130 -363 10 -30 39 -113 64 -185
76 -212 152 -430 207 -594 38 -111 60 -161 80 -180 15 -14 34 -33 43 -41 43
-41 65 -87 108 -225 69 -228 78 -247 110 -258 40 -13 76 -1 94 32 15 25 19 27
44 18 22 -9 36 -7 69 8 l41 18 29 -31 c15 -17 39 -34 53 -37 29 -8 82 17 97
44 23 45 4 125 -33 135 -18 4 -18 6 -3 21 23 23 31 65 17 88 -8 12 -9 23 -3
29 12 12 42 -72 42 -117 0 -36 41 -85 71 -85 65 0 99 60 81 143 l-9 46 27 -29
c17 -18 38 -30 54 -30 22 0 27 -6 37 -44 14 -54 52 -77 101 -58 20 7 38 8 54
1 40 -15 63 -11 91 17 22 22 24 31 19 66 -6 36 -5 40 11 32 31 -15 100 -7 147
15 36 18 47 29 51 54 4 18 2 45 -4 60 -18 47 -14 413 5 501 16 70 16 77 0 101
-9 14 -30 28 -46 31 l-29 6 6 63 c5 59 4 65 -20 89 -14 14 -37 26 -52 26 -14
0 -25 6 -25 13 0 6 -9 93 -20 192 -11 99 -20 206 -20 238 0 48 -4 62 -25 82
-28 29 -61 32 -93 9 -13 -9 -25 -14 -27 -12 -2 2 -22 139 -44 305 -23 167 -44
309 -47 317 -3 8 -25 24 -48 37 -38 19 -47 21 -72 11 -16 -7 -35 -26 -43 -43
-11 -25 -11 -34 3 -63 22 -47 20 -51 -10 -27 -15 12 -35 21 -45 21 -21 0 -22
4 -48 155 -12 66 -32 181 -45 255 -14 74 -34 189 -46 255 -43 242 -89 456
-109 500 -38 86 -90 115 -137 77z"/>
</g>
</svg>
