<svg version="1.0" xmlns="http://www.w3.org/2000/svg"
 width="3000px" height="3000px" viewBox="0 0 3000 3000"
 preserveAspectRatio="xMidYMid meet">

<g transform="translate(0.000000,3000) scale(0.100000,-0.100000)"
fill="#000000" stroke="none">
<path d="M6777 27161 c-140 -71 -225 -311 -183 -517 31 -153 89 -260 198 -366
78 -77 223 -140 351 -153 78 -8 72 -2 124 -143 47 -129 279 -800 333 -962 85
-254 232 -688 240 -705 5 -11 47 -137 95 -280 112 -336 102 -313 136 -320 49
-11 86 3 100 37 12 28 3 59 -126 447 -184 555 -212 640 -323 961 -51 151 -103
302 -113 335 -11 33 -23 69 -28 80 -5 11 -37 101 -71 200 -33 99 -75 216 -92
260 -45 120 -46 114 24 165 109 81 158 194 158 370 0 220 -75 368 -250 495
-134 97 -220 123 -403 123 -107 0 -123 -3 -170 -27z m374 -200 c70 -30 147
-83 180 -125 33 -42 86 -167 99 -234 16 -80 4 -126 -51 -198 -88 -115 -228
-124 -379 -23 -75 51 -122 117 -155 222 -32 100 -33 194 -4 274 27 73 36 83
96 99 79 21 140 17 214 -15z"/>
<path d="M7017 26779 c-33 -19 -49 -67 -42 -123 11 -82 28 -111 76 -133 69
-32 80 -34 115 -23 49 16 74 57 74 120 0 48 -3 55 -49 101 -65 65 -126 86
-174 58z"/>
</g>
</svg>
