<svg version="1.0" xmlns="http://www.w3.org/2000/svg"
 width="3000px" height="3000px" viewBox="0 0 3000 3000"
 preserveAspectRatio="xMidYMid meet">

<g transform="translate(0.000000,3000) scale(0.100000,-0.100000)"
fill="#000000" stroke="none">
<path d="M8569 26003 c-32 -8 -113 -121 -245 -343 -31 -52 -69 -115 -84 -140
-122 -200 -449 -838 -620 -1207 -46 -100 -85 -181 -87 -180 -5 6 117 504 202
822 78 295 222 753 275 881 29 68 -30 122 -102 95 -42 -16 -88 -125 -187 -447
-102 -331 -156 -528 -251 -908 l-67 -270 -6 100 c-10 150 -8 709 3 879 19 288
53 498 91 561 11 17 19 40 19 52 0 32 -32 62 -73 69 -33 5 -41 2 -72 -31 -38
-40 -58 -97 -80 -221 -43 -249 -59 -559 -52 -1018 5 -381 16 -529 57 -767 11
-67 18 -131 15 -141 -6 -19 -7 -19 -24 3 -19 24 -25 36 -86 158 -147 293 -309
703 -376 945 -53 191 -63 330 -29 400 11 22 19 45 20 52 0 27 -23 59 -51 72
-42 18 -70 2 -112 -63 l-32 -51 0 -135 c1 -114 5 -152 29 -245 29 -115 100
-334 143 -445 112 -289 202 -489 291 -645 55 -95 176 -278 197 -295 9 -7 15
-29 15 -51 0 -52 17 -85 51 -99 36 -15 90 -4 96 21 3 10 13 21 22 24 9 3 23
22 32 44 14 33 22 39 57 45 26 4 45 13 52 26 16 30 50 26 50 -5 0 -14 12 -37
26 -52 21 -21 32 -24 62 -20 32 5 47 0 107 -38 39 -25 84 -52 100 -61 17 -9
64 -43 105 -74 41 -31 86 -63 100 -70 14 -7 97 -66 185 -130 88 -64 187 -134
220 -154 115 -74 786 -569 841 -622 17 -16 57 -54 90 -84 32 -30 67 -67 76
-82 20 -31 69 -45 110 -29 35 13 47 65 25 107 -19 36 -136 156 -202 209 -27
21 -63 51 -78 66 -36 36 -567 426 -657 484 -39 25 -114 77 -168 117 -88 65
-168 121 -377 261 -123 83 -275 190 -272 193 5 4 331 -27 532 -51 317 -38 656
-99 870 -156 44 -11 96 -25 115 -29 105 -26 271 -103 309 -144 50 -53 135 -43
146 17 8 42 -3 66 -53 113 -185 175 -954 342 -1837 400 l-100 6 65 30 c36 16
297 129 580 250 283 122 577 252 653 290 159 80 358 211 375 247 15 31 16 61
2 61 -5 0 -10 6 -10 14 0 19 -52 38 -83 31 -14 -4 -43 -21 -64 -39 -96 -80
-305 -184 -808 -401 -347 -149 -546 -237 -660 -289 -61 -28 -90 -38 -75 -25
84 70 198 168 223 191 15 15 55 48 87 74 33 26 60 50 60 54 0 4 15 18 34 31
18 13 62 49 96 79 34 30 88 78 120 105 58 51 129 112 231 201 30 27 95 83 144
124 48 41 100 86 115 100 15 14 67 59 116 100 48 41 100 86 114 100 14 14 48
43 75 65 28 22 57 47 65 56 23 24 162 134 187 148 40 21 39 131 -2 131 -8 0
-15 5 -15 10 0 35 -114 -30 -226 -129 -22 -20 -80 -70 -129 -111 -49 -41 -101
-86 -115 -100 -15 -14 -49 -43 -76 -65 -27 -22 -61 -51 -75 -65 -14 -14 -63
-56 -109 -95 -45 -38 -97 -83 -115 -100 -18 -16 -72 -64 -120 -105 -49 -41
-98 -84 -110 -95 -12 -11 -46 -40 -76 -65 -29 -24 -63 -54 -75 -65 -11 -11
-60 -54 -109 -95 -49 -41 -101 -86 -115 -100 -46 -43 -121 -102 -125 -98 -4 4
47 79 217 322 121 174 427 583 479 640 109 122 227 240 262 263 43 27 61 64
52 109 -6 37 -49 60 -89 50 -48 -12 -253 -205 -362 -340 -21 -27 -52 -63 -67
-79 -16 -17 -113 -145 -216 -286 -264 -361 -393 -554 -599 -897 -19 -31 -36
-54 -38 -51 -3 2 16 49 42 103 25 54 65 142 89 194 56 125 327 674 402 815
154 289 179 335 220 402 23 39 43 74 43 77 0 2 23 42 51 88 29 46 61 99 73
118 11 19 46 71 78 115 66 90 74 109 59 148 -14 37 -55 53 -102 40z"/>
</g>
</svg>
