<svg version="1.0" xmlns="http://www.w3.org/2000/svg"
 width="3000px" height="3000px" viewBox="0 0 3000 3000"
 preserveAspectRatio="xMidYMid meet">

<g transform="translate(0.000000,3000) scale(0.100000,-0.100000)"
fill="#000000" stroke="none">
<path d="M7666 23696 c-33 -15 -55 -49 -56 -86 0 -22 -4 -25 -40 -25 -22 -1
-45 -6 -51 -12 -6 -6 -15 -49 -20 -95 -16 -156 -77 -318 -199 -528 -46 -79
-262 -371 -339 -458 -50 -57 -79 -86 -207 -209 -64 -61 -233 -183 -254 -183
-34 0 -70 -44 -70 -85 0 -47 15 -51 92 -27 35 11 84 23 110 27 69 9 143 65
336 255 43 42 95 98 116 125 22 28 50 61 64 74 35 35 213 277 262 356 115 187
225 458 237 578 l6 68 41 -39 c54 -51 82 -70 198 -130 213 -111 691 -237 1053
-277 195 -22 432 -19 710 9 513 53 668 89 960 223 111 51 313 180 357 227 54
60 59 148 9 167 -38 15 -99 -5 -113 -37 -17 -36 -135 -118 -257 -179 -299
-149 -445 -185 -970 -240 -281 -29 -494 -32 -686 -10 -173 20 -562 105 -759
167 -208 65 -311 116 -393 198 -26 26 -31 36 -23 50 16 31 11 60 -15 85 -26
27 -55 30 -99 11z"/>
</g>
</svg>
