<svg version="1.0" xmlns="http://www.w3.org/2000/svg"
 width="3000px" height="3000px" viewBox="0 0 3000 3000"
 preserveAspectRatio="xMidYMid meet">

<g transform="translate(0.000000,3000) scale(0.100000,-0.100000)"
fill="#000000" stroke="none">
<path d="M10896 24787 c-36 -37 -49 -97 -44 -212 9 -177 81 -338 208 -466 53
-53 90 -78 166 -116 l99 -48 110 0 c105 0 114 2 178 33 78 38 175 124 210 185
34 58 70 173 71 225 1 37 -4 48 -32 73 -35 31 -66 36 -117 18 -29 -11 -38 -8
-96 24 -35 19 -192 95 -349 168 -318 147 -360 160 -404 116z m393 -261 c149
-74 309 -156 356 -181 l85 -46 -16 -37 c-22 -55 -99 -127 -167 -157 -50 -23
-70 -27 -126 -23 -222 12 -441 270 -441 520 0 51 2 58 20 58 10 0 141 -60 289
-134z"/>
<path d="M10815 23440 c-220 -59 -439 -248 -560 -481 -127 -247 -193 -563
-182 -882 7 -234 61 -404 170 -539 23 -29 76 -97 116 -151 123 -164 216 -228
423 -291 161 -49 251 -60 441 -53 233 8 411 53 633 162 217 105 366 225 515
412 79 100 109 160 109 220 0 27 5 64 10 83 36 121 31 342 -11 519 -25 106
-43 148 -115 257 -137 210 -267 359 -397 457 -258 193 -477 276 -783 296 -216
15 -287 13 -369 -9z m600 -164 c169 -44 386 -162 535 -291 69 -60 89 -85 68
-85 -6 0 -215 -76 -463 -169 -247 -93 -538 -201 -645 -239 -107 -38 -304 -111
-437 -161 -133 -50 -244 -91 -248 -91 -10 0 5 134 27 244 31 159 131 413 206
523 88 130 157 180 337 242 153 53 204 61 370 57 119 -4 171 -10 250 -30z
m815 -632 c37 -56 77 -126 88 -156 20 -53 52 -201 52 -238 0 -22 -35 -35 -540
-205 -201 -68 -419 -143 -485 -168 -112 -42 -198 -69 -535 -168 -74 -22 -193
-59 -265 -82 -71 -23 -135 -43 -141 -45 -29 -8 -154 290 -169 404 -3 27 -9 61
-11 77 -5 25 -1 29 48 51 29 12 172 65 318 116 752 265 1467 533 1495 561 l20
20 28 -33 c16 -18 59 -79 97 -134z m140 -597 c0 -71 -71 -259 -136 -357 -147
-225 -472 -400 -901 -486 -101 -20 -291 -19 -379 1 -37 8 -116 41 -175 71
-124 65 -280 182 -258 194 8 4 118 38 244 75 594 172 1227 377 1455 469 74 30
138 55 143 56 4 0 7 -10 7 -23z"/>
<path d="M11175 22286 c-61 -27 -92 -84 -74 -135 20 -58 121 -71 170 -22 32
32 37 66 18 120 -18 50 -56 63 -114 37z"/>
<path d="M5747 23178 c-9 -7 -41 -69 -71 -136 -73 -163 -117 -243 -218 -398
-47 -71 -108 -169 -138 -219 -29 -49 -120 -192 -201 -317 -82 -124 -156 -242
-165 -261 -20 -43 -13 -80 22 -112 84 -78 410 -17 599 112 131 89 269 266 323
416 47 130 55 188 49 359 -4 142 -8 163 -48 303 -23 83 -43 162 -44 178 -2 15
-3 33 -4 41 -3 40 -68 60 -104 34z m37 -453 c8 -7 21 -36 27 -66 32 -149 -32
-380 -147 -530 -120 -156 -271 -247 -462 -279 -40 -7 -76 -10 -79 -7 -3 4 53
95 124 204 72 109 154 239 183 288 30 50 97 158 151 240 53 83 111 179 129
215 l34 65 12 -59 c6 -33 19 -65 28 -71z"/>
<path d="M6520 22143 c-57 -8 -72 -15 -108 -47 -20 -18 -70 -50 -110 -72 -97
-51 -261 -182 -342 -272 -206 -230 -361 -545 -416 -842 -35 -192 -17 -540 38
-718 25 -81 159 -345 226 -444 112 -165 407 -396 686 -538 86 -44 91 -45 181
-45 87 0 96 2 171 40 277 140 655 542 810 860 56 116 116 285 160 450 52 197
42 514 -22 738 -62 217 -129 326 -326 532 -111 116 -232 204 -339 247 -143 57
-515 125 -609 111z m312 -183 c42 -10 96 -29 120 -41 64 -31 254 -178 332
-254 74 -74 171 -205 159 -215 -5 -4 -39 -15 -78 -25 -114 -30 -1122 -372
-1407 -478 -82 -30 -148 -51 -148 -47 0 37 114 329 181 462 113 226 302 452
461 551 15 9 60 28 100 42 90 30 174 32 280 5z m715 -707 c66 -148 109 -336
101 -443 l-3 -43 -230 -92 c-126 -50 -324 -132 -440 -182 -115 -50 -327 -134
-470 -188 -264 -100 -647 -246 -676 -259 -19 -8 -30 14 -60 129 -28 110 -36
315 -16 454 9 57 19 107 24 111 8 8 297 107 733 253 124 41 362 122 530 179
247 85 422 139 471 147 4 1 20 -29 36 -66z m64 -781 c-68 -320 -214 -578 -465
-827 -119 -118 -176 -155 -276 -181 -116 -29 -275 1 -457 87 -92 44 -336 214
-444 310 -57 51 -67 65 -57 75 7 7 171 69 363 137 368 131 616 226 775 297 52
24 203 87 335 141 277 112 259 115 226 -39z m-948 -1149 c31 -3 57 -10 57 -14
0 -17 -85 -9 -125 11 -25 13 -30 18 -15 15 14 -3 51 -9 83 -12z"/>
<path d="M6574 20879 c-10 -11 -33 -27 -50 -34 -37 -15 -59 -68 -49 -116 10
-43 75 -106 119 -115 49 -9 79 1 121 38 93 81 86 171 -17 222 -63 31 -99 33
-124 5z"/>
</g>
</svg>
