<svg version="1.0" xmlns="http://www.w3.org/2000/svg"
 width="3000px" height="3000px" viewBox="0 0 3000 3000"
 preserveAspectRatio="xMidYMid meet">

<g transform="translate(0.000000,3000) scale(0.100000,-0.100000)"
fill="#000000" stroke="none">
<path d="M10330 25451 c-207 -67 -393 -359 -425 -668 -4 -37 -12 -78 -16 -91
-11 -29 11 -86 39 -101 34 -18 69 -13 89 14 15 20 40 30 148 54 300 67 334 72
550 80 259 10 304 24 305 92 0 15 -9 38 -20 52 -11 14 -20 30 -20 36 0 6 -19
30 -43 54 -23 24 -80 97 -127 163 -153 217 -275 315 -399 321 -31 1 -67 -1
-81 -6z m136 -152 c56 -26 139 -116 244 -263 47 -65 91 -126 99 -137 13 -18
10 -19 -65 -19 -151 0 -302 -21 -506 -70 -112 -26 -205 -46 -207 -44 -9 8 32
160 61 231 72 175 209 321 302 323 16 0 49 -9 72 -21z"/>
<path d="M5985 24282 c-156 -55 -282 -183 -393 -399 -94 -184 -142 -372 -142
-564 0 -77 2 -88 23 -107 29 -27 70 -28 105 -3 52 36 459 241 637 319 99 44
215 96 257 116 58 26 85 34 111 29 45 -7 73 9 87 51 14 45 3 73 -91 212 -90
136 -238 286 -324 329 -76 38 -191 46 -270 17z m208 -143 c58 -30 186 -157
247 -245 27 -40 50 -76 50 -81 0 -4 -17 -15 -38 -25 -332 -148 -523 -240 -761
-369 l-114 -62 7 64 c22 216 143 476 291 625 108 109 221 142 318 93z"/>
<path d="M10891 23470 c-120 -25 -291 -139 -428 -284 -150 -158 -321 -440
-381 -626 -46 -141 -55 -223 -48 -405 10 -269 32 -384 100 -530 80 -170 291
-410 456 -517 289 -189 581 -288 852 -288 203 0 462 76 613 180 67 46 115 100
186 209 112 170 162 319 194 571 23 181 16 486 -14 605 -48 194 -122 347 -279
575 -111 162 -153 205 -276 289 -183 124 -349 192 -512 210 -135 15 -413 21
-463 11z m559 -170 c174 -49 417 -199 498 -307 208 -277 322 -511 352 -718 15
-106 12 -370 -6 -497 -18 -133 -34 -199 -75 -314 -24 -65 -37 -87 -57 -96 -15
-8 -30 -26 -35 -43 -17 -59 -34 -81 -97 -128 -70 -53 -202 -120 -315 -160
-122 -43 -322 -58 -482 -36 -91 12 -273 69 -356 110 -73 37 -181 140 -315 299
-179 214 -281 386 -348 585 -32 98 -36 120 -36 210 1 183 60 390 163 571 40
69 214 267 304 346 124 108 279 179 430 199 103 13 292 3 375 -21z"/>
<path d="M11265 22221 c-61 -37 -83 -85 -64 -139 14 -40 49 -62 96 -62 48 0
81 22 99 66 22 54 18 92 -15 125 -35 34 -72 38 -116 10z"/>
<path d="M6705 22195 c-110 -17 -196 -41 -263 -72 -32 -15 -71 -26 -88 -24
-39 3 -122 -38 -219 -107 -304 -216 -528 -646 -590 -1132 -40 -308 7 -542 172
-861 74 -144 112 -198 236 -334 111 -122 184 -187 297 -264 160 -110 265 -148
435 -158 130 -7 189 6 317 70 198 100 330 212 434 372 216 333 296 675 281
1209 -10 369 -66 594 -205 830 -60 100 -184 249 -264 317 -110 91 -305 170
-418 168 -25 -1 -81 -7 -125 -14z m231 -146 c151 -46 243 -115 370 -273 84
-105 185 -307 218 -436 90 -354 75 -906 -35 -1235 -35 -103 -130 -291 -194
-381 -84 -117 -257 -250 -407 -312 -123 -51 -303 -38 -444 33 -120 61 -270
182 -385 310 -112 126 -168 206 -230 327 -166 329 -195 572 -112 947 82 375
290 725 521 879 45 30 56 34 73 24 39 -25 82 -14 149 39 40 31 104 53 228 79
115 25 166 24 248 -1z"/>
<path d="M6500 20882 c-34 -15 -83 -58 -91 -80 -12 -31 2 -56 53 -92 86 -62
178 -26 178 70 0 69 -82 128 -140 102z"/>
</g>
</svg>
