<svg version="1.0" xmlns="http://www.w3.org/2000/svg"
 width="3000px" height="3000px" viewBox="0 0 3000 3000"
 preserveAspectRatio="xMidYMid meet">

<g transform="translate(0.000000,3000) scale(0.100000,-0.100000)"
fill="#000000" stroke="none">
<path d="M10937 23479 c-64 -9 -362 -144 -445 -201 -72 -49 -217 -194 -283
-281 -182 -241 -265 -599 -214 -927 39 -260 213 -577 440 -806 133 -133 293
-233 465 -291 83 -27 89 -28 315 -28 245 0 389 14 507 46 80 22 310 126 373
169 22 15 68 42 102 60 77 40 141 103 223 218 87 123 122 194 127 267 5 52 2
63 -15 79 -15 12 -32 17 -55 14 l-34 -4 -6 131 c-8 215 -109 601 -213 811 -56
114 -189 334 -250 414 -47 61 -135 133 -214 174 -73 39 -366 131 -480 152 -83
15 -252 16 -343 3z m546 -204 c202 -63 208 -65 294 -129 50 -36 78 -70 148
-175 162 -246 233 -406 314 -711 80 -302 81 -518 3 -684 -41 -87 -151 -216
-243 -286 -69 -51 -97 -65 -207 -100 -222 -71 -283 -84 -418 -83 -112 1 -125
3 -162 27 -39 24 -113 117 -144 181 -35 71 -90 353 -109 565 -16 177 -6 494
20 643 58 326 154 564 291 720 29 33 31 41 22 62 -9 19 -9 25 0 25 6 0 92 -25
191 -55z m-425 18 c-75 -82 -131 -196 -207 -418 -91 -268 -117 -462 -108 -798
9 -332 71 -612 178 -802 15 -27 32 -62 38 -77 l10 -27 -52 20 c-152 60 -331
181 -441 300 -165 178 -253 310 -295 444 -43 134 -54 224 -48 382 6 156 30
262 90 388 103 216 323 448 509 535 81 38 237 79 302 80 l50 0 -26 -27z"/>
<path d="M11061 22169 c-38 -38 -41 -46 -41 -94 0 -38 6 -60 21 -79 18 -23 28
-26 80 -26 68 0 108 17 134 56 38 59 16 128 -55 164 -61 31 -91 26 -139 -21z"/>
<path d="M9440 22933 c-19 -9 -42 -15 -52 -14 -60 7 -140 -75 -202 -210 -83
-180 -126 -345 -126 -481 0 -157 46 -268 134 -323 43 -26 59 -30 120 -30 90 0
162 33 249 115 95 89 163 217 207 391 70 275 4 481 -177 549 -64 24 -106 25
-153 3z m135 -152 c17 -9 40 -37 55 -66 50 -100 24 -300 -62 -482 -60 -127
-198 -238 -273 -219 -70 18 -101 107 -93 266 4 79 13 119 53 238 49 146 113
270 137 263 43 -13 66 -11 88 8 27 22 45 20 95 -8z"/>
<path d="M7822 22399 c-85 -16 -251 -125 -293 -192 -25 -40 -20 -126 12 -190
61 -118 250 -329 389 -432 174 -128 387 -170 530 -104 111 52 160 138 160 280
0 146 -64 274 -202 405 -137 130 -269 201 -428 230 -84 15 -107 15 -168 3z
m156 -145 c142 -29 259 -98 375 -224 87 -94 121 -163 125 -255 3 -80 -14 -125
-61 -159 -24 -18 -42 -21 -115 -20 -157 1 -267 61 -461 252 -116 114 -191 217
-191 263 0 23 11 36 53 68 71 53 141 87 185 90 7 1 48 -6 90 -15z"/>
<path d="M6562 22255 c-72 -16 -167 -66 -250 -132 -94 -75 -498 -488 -564
-576 -166 -222 -245 -499 -235 -822 6 -184 26 -295 88 -480 87 -258 205 -443
423 -661 106 -106 138 -131 256 -201 151 -90 232 -123 383 -154 86 -18 121
-20 227 -15 184 10 306 24 390 47 98 26 282 118 356 177 154 125 285 363 339
618 26 120 24 390 -4 569 -52 345 -171 674 -333 922 -175 269 -465 539 -717
670 -95 49 -239 64 -359 38z m-76 -205 c6 -6 50 -17 98 -26 309 -54 574 -268
923 -747 58 -80 97 -171 142 -332 76 -269 94 -709 38 -929 l-13 -49 -221 294
c-246 326 -367 471 -553 663 -210 216 -375 346 -605 476 -85 49 -267 164 -294
186 -17 15 297 350 402 430 64 47 68 49 83 34z m-414 -688 c62 -32 181 -107
263 -166 129 -94 187 -146 420 -380 149 -149 333 -343 409 -431 126 -146 316
-394 411 -537 l37 -57 -48 -78 c-26 -43 -82 -113 -125 -155 -62 -62 -95 -85
-170 -122 -132 -63 -195 -72 -355 -52 -130 17 -316 70 -441 126 -171 78 -340
234 -473 440 -86 134 -190 375 -224 523 -40 171 -44 402 -10 565 38 187 102
358 138 372 38 15 54 11 168 -48z"/>
<path d="M6830 20546 c-57 -19 -109 -121 -95 -186 8 -37 63 -86 115 -101 108
-33 216 71 181 173 -17 49 -38 76 -74 94 -49 26 -90 32 -127 20z"/>
</g>
</svg>
