<svg version="1.0" xmlns="http://www.w3.org/2000/svg"
 width="3000px" height="3000px" viewBox="0 0 3000 3000"
 preserveAspectRatio="xMidYMid meet">

<g transform="translate(0.000000,3000) scale(0.100000,-0.100000)"
fill="#000000" stroke="none">
<path d="M11845 24364 c-155 -15 -258 -56 -328 -133 -57 -64 -79 -129 -79
-239 0 -134 58 -242 179 -334 180 -135 467 -141 658 -13 110 74 167 181 169
315 0 64 -4 82 -28 126 -38 69 -104 135 -174 172 -55 29 -281 102 -332 107
-14 1 -43 1 -65 -1z m1 -156 c20 -68 105 -79 126 -17 6 17 201 -46 240 -79 46
-37 56 -51 80 -101 20 -43 20 -46 3 -106 -21 -80 -60 -127 -138 -164 -206
-101 -454 -37 -552 140 -26 46 -30 64 -29 124 0 75 15 114 56 151 30 28 78 52
125 63 64 15 81 13 89 -11z"/>
<path d="M11020 23405 c-805 -130 -1268 -1030 -944 -1834 231 -576 827 -915
1394 -796 438 92 796 432 928 880 59 200 74 464 38 655 -95 492 -419 884 -858
1039 -168 58 -399 82 -558 56z m362 -149 c218 -42 412 -147 574 -312 234 -237
357 -543 357 -889 0 -545 -333 -1000 -828 -1131 -87 -24 -119 -27 -250 -27
-130 0 -163 3 -247 26 -191 51 -353 144 -497 286 -173 170 -279 361 -342 615
-30 120 -37 352 -15 487 81 488 429 862 879 944 97 18 279 18 369 1z"/>
<path d="M11210 22500 c-17 -16 -36 -30 -44 -30 -24 0 -94 -70 -116 -117 -31
-65 -32 -153 -3 -209 12 -23 42 -59 67 -81 130 -115 315 -67 371 96 28 83 12
164 -50 257 -73 111 -163 144 -225 84z"/>
<path d="M5641 22770 c-24 -11 -53 -20 -65 -20 -11 0 -46 -11 -76 -23 -165
-68 -346 -263 -429 -460 -30 -74 -61 -217 -61 -286 0 -77 28 -141 88 -201 77
-76 142 -102 277 -108 166 -7 282 32 432 145 147 111 231 233 273 395 54 216
25 398 -78 488 -84 75 -274 111 -361 70z m210 -145 c62 -21 85 -49 105 -124
35 -139 -22 -356 -126 -473 -59 -67 -189 -162 -257 -188 -88 -34 -221 -38
-295 -11 -66 26 -114 74 -124 126 -15 80 37 263 107 382 41 68 189 221 241
247 36 18 39 18 58 1 34 -31 71 -22 110 25 34 41 36 42 85 36 28 -3 71 -13 96
-21z"/>
<path d="M6735 22190 c-149 -23 -312 -90 -447 -182 -544 -372 -794 -1195 -572
-1877 128 -392 389 -672 734 -787 80 -26 95 -28 260 -29 154 0 185 3 255 23
188 55 364 161 515 312 282 282 451 689 467 1125 17 452 -114 835 -379 1111
-132 137 -305 241 -474 284 -90 23 -272 33 -359 20z m239 -140 c399 -56 711
-407 813 -915 24 -124 25 -441 0 -572 -68 -361 -237 -674 -475 -879 -104 -89
-206 -148 -335 -192 -185 -64 -407 -55 -581 22 -184 81 -361 260 -467 469
-206 405 -203 942 6 1384 197 417 547 679 927 692 20 0 70 -4 112 -9z"/>
<path d="M6753 21140 c-45 -18 -109 -94 -121 -142 -27 -106 -6 -185 65 -249
130 -118 302 -54 343 126 17 74 5 129 -37 176 -42 46 -77 67 -148 85 -57 16
-71 16 -102 4z"/>
<path d="M13298 18732 c9 -10 19 -17 21 -16 6 5 -20 34 -30 34 -5 0 -1 -8 9
-18z"/>
</g>
</svg>
