<svg version="1.0" xmlns="http://www.w3.org/2000/svg"
 width="3000px" height="3000px" viewBox="0 0 3000 3000"
 preserveAspectRatio="xMidYMid meet">

<g transform="translate(0.000000,3000) scale(0.100000,-0.100000)"
fill="#000000" stroke="none">
<path d="M11579 24390 c-188 -18 -334 -173 -347 -366 -6 -95 13 -148 77 -213
100 -102 298 -167 434 -142 147 27 277 142 306 270 23 103 -31 245 -127 332
-61 56 -202 130 -243 128 -13 -1 -58 -5 -100 -9z m157 -160 c120 -58 203 -188
175 -273 -14 -41 -73 -102 -125 -130 -108 -55 -324 2 -400 106 -56 76 11 248
119 305 73 38 139 36 231 -8z"/>
<path d="M11155 23436 c-5 -2 -57 -12 -115 -21 -130 -21 -185 -38 -275 -83
-186 -92 -340 -250 -447 -459 -61 -118 -93 -210 -125 -361 -24 -114 -27 -149
-27 -337 -1 -236 10 -313 68 -467 103 -274 392 -591 661 -726 132 -66 191 -77
400 -77 168 0 200 3 275 23 185 51 314 119 461 244 184 157 285 279 328 392
58 155 105 597 83 782 -17 151 -84 274 -149 274 -26 0 -31 7 -71 98 -69 160
-133 254 -256 377 -61 61 -142 134 -181 163 -82 62 -225 134 -310 157 -55 14
-296 30 -320 21z m253 -152 c155 -31 309 -131 483 -311 99 -103 153 -188 215
-342 86 -210 120 -397 111 -606 -11 -273 -74 -435 -233 -604 -131 -139 -271
-231 -413 -270 -173 -48 -441 -48 -584 0 -149 50 -317 161 -390 257 -181 238
-257 518 -244 897 7 217 50 373 146 535 78 131 255 297 386 363 52 26 211 82
255 90 58 10 196 6 268 -9z"/>
<path d="M10974 23125 c-84 -18 -165 -61 -259 -138 -106 -86 -156 -139 -200
-212 -99 -166 -145 -505 -96 -710 49 -200 153 -443 236 -548 79 -100 249 -207
388 -244 91 -25 331 -24 412 1 221 67 369 218 449 460 43 129 29 196 -42 196
-39 0 -57 -23 -75 -95 -53 -207 -139 -325 -289 -395 -105 -49 -231 -62 -378
-40 -98 15 -240 89 -316 165 -74 74 -152 223 -214 412 -68 209 -71 369 -9 593
30 110 63 163 160 254 102 95 171 139 254 161 161 41 282 -9 465 -194 162
-164 219 -278 227 -456 9 -166 -30 -308 -118 -440 -59 -88 -121 -144 -206
-186 -60 -30 -66 -31 -170 -27 -100 3 -113 6 -172 38 -96 52 -170 152 -222
303 -35 99 -37 172 -9 282 24 93 56 153 119 218 68 71 111 91 187 84 117 -9
212 -76 266 -185 31 -62 33 -74 33 -167 0 -91 -3 -106 -32 -167 -17 -36 -43
-74 -57 -83 -56 -37 -158 -27 -215 21 -62 52 -83 226 -34 275 26 26 77 20 111
-12 28 -26 29 -59 2 -59 -29 0 -70 -44 -70 -74 0 -41 39 -78 84 -78 71 0 127
61 134 145 6 74 -11 119 -63 165 -102 89 -255 82 -320 -16 -54 -83 -59 -242
-9 -352 52 -117 151 -175 299 -175 71 0 86 4 135 31 69 39 123 112 153 209 32
100 31 276 -1 354 -54 128 -160 235 -280 282 -44 18 -78 23 -152 23 -121 1
-167 -20 -265 -118 -124 -126 -180 -267 -180 -456 0 -100 4 -124 28 -189 72
-197 179 -333 312 -395 74 -36 126 -45 236 -46 154 0 236 32 359 144 153 138
245 343 257 571 13 250 -66 435 -271 641 -142 141 -261 213 -386 233 -82 14
-120 13 -196 -4z"/>
<path d="M5532 22681 c-142 -48 -247 -154 -299 -301 -43 -121 -25 -221 52
-289 47 -41 85 -57 163 -70 137 -22 304 38 403 146 97 107 147 258 125 378 -9
48 -67 110 -119 129 -63 22 -266 27 -325 7z m290 -149 c48 -48 1 -200 -88
-281 -98 -91 -237 -122 -331 -73 -60 31 -70 68 -43 155 25 82 69 141 139 188
l54 36 124 -2 c111 -2 127 -5 145 -23z"/>
<path d="M6333 22020 c-39 -10 -93 -30 -120 -44 -79 -40 -212 -143 -305 -237
-82 -82 -92 -96 -162 -241 -171 -353 -210 -515 -210 -873 1 -229 11 -327 51
-480 51 -197 158 -432 253 -558 86 -113 224 -223 363 -287 145 -66 190 -75
387 -75 191 0 249 9 460 70 259 75 356 127 487 262 110 113 245 281 299 373
91 155 128 325 128 600 0 273 -33 411 -160 660 -124 246 -269 438 -417 556
-114 90 -292 178 -427 209 -133 31 -357 59 -415 53 -35 -4 -48 -1 -61 13 -21
23 -57 23 -151 -1z m355 -190 c113 -13 208 -53 352 -148 196 -130 450 -436
583 -701 l52 -104 0 -186 c-1 -168 -3 -197 -29 -306 -102 -436 -246 -651 -531
-790 -269 -132 -608 -148 -849 -41 -136 61 -272 226 -347 420 -83 216 -122
452 -122 746 0 455 68 674 278 899 107 115 199 166 365 201 102 22 123 23 248
10z"/>
<path d="M6355 21641 c-88 -25 -176 -68 -213 -104 -62 -59 -79 -119 -44 -150
32 -29 70 -21 113 23 47 47 73 62 159 88 93 29 148 34 225 22 240 -38 442
-206 504 -420 27 -93 33 -136 33 -258 0 -175 -36 -360 -99 -512 -102 -248
-220 -362 -401 -390 -80 -13 -200 5 -274 40 -57 26 -158 131 -192 198 -97 191
-113 471 -42 697 36 114 80 173 172 233 96 64 153 79 237 62 245 -48 350 -246
289 -542 -44 -214 -135 -322 -282 -335 -106 -10 -207 42 -252 131 -65 128 0
394 112 453 82 43 179 23 206 -44 23 -53 15 -135 -16 -168 -30 -32 -64 -30
-68 5 -5 34 -40 70 -69 70 -13 0 -36 -12 -50 -26 -21 -21 -25 -32 -20 -64 7
-53 41 -98 91 -121 168 -76 327 111 271 318 -35 130 -145 202 -289 191 -185
-15 -316 -193 -333 -451 -12 -191 63 -323 227 -401 59 -28 74 -31 166 -31 96
0 103 2 176 38 95 47 155 110 208 221 94 198 105 469 24 634 -83 170 -322 292
-510 262 -147 -24 -313 -149 -382 -285 -65 -130 -99 -331 -88 -525 7 -142 33
-247 92 -369 37 -75 61 -109 122 -171 86 -87 126 -110 238 -141 64 -17 97 -20
198 -17 104 4 130 8 189 32 148 62 245 164 341 361 106 216 140 372 141 650 0
218 -14 287 -86 426 -88 169 -273 314 -470 369 -95 26 -266 27 -354 1z"/>
<path d="M8404 19404 c-42 -41 -28 -69 141 -275 38 -47 116 -149 171 -225 56
-76 125 -166 154 -199 79 -89 202 -250 325 -424 105 -149 112 -156 147 -159
21 -2 46 2 57 8 41 21 231 446 231 514 0 37 -25 66 -57 66 -52 0 -63 -15 -111
-147 -16 -43 -49 -118 -74 -166 l-44 -89 -39 59 c-62 94 -210 288 -335 438
-64 77 -157 194 -207 260 -50 66 -118 151 -152 189 -34 38 -73 88 -88 112 -25
39 -58 64 -84 64 -5 0 -21 -11 -35 -26z"/>
</g>
</svg>
