<svg version="1.0" xmlns="http://www.w3.org/2000/svg"
 width="3000px" height="3000px" viewBox="0 0 3000 3000"
 preserveAspectRatio="xMidYMid meet">

<g transform="translate(0.000000,3000) scale(0.100000,-0.100000)"
fill="#000000" stroke="none">
<path d="M11181 24229 c-50 -11 -86 -41 -89 -77 -12 -120 269 -340 532 -417
105 -30 264 -35 361 -10 147 37 308 154 355 257 25 55 26 119 2 141 -17 16
-179 51 -377 82 -55 9 -192 18 -305 20 -113 3 -259 7 -325 8 -66 2 -135 0
-154 -4z m734 -159 c164 -24 255 -40 273 -50 19 -9 -59 -77 -130 -113 -61 -31
-170 -57 -241 -57 -145 0 -393 100 -500 202 l-52 49 255 -5 c177 -4 298 -12
395 -26z"/>
<path d="M10920 23444 c-8 -3 -44 -14 -80 -26 -77 -24 -222 -96 -300 -147
-116 -76 -329 -302 -440 -466 -69 -103 -221 -382 -264 -487 -39 -95 -78 -239
-97 -363 -16 -104 -17 -305 -1 -375 45 -197 145 -431 231 -536 89 -109 158
-145 507 -265 221 -76 289 -90 465 -96 182 -7 276 6 432 59 66 22 120 38 122
36 1 -2 -9 -79 -22 -173 -18 -123 -25 -218 -27 -345 -1 -162 1 -179 22 -232
51 -125 172 -242 313 -299 146 -60 353 -3 496 137 89 87 118 152 118 264 0
124 -34 191 -163 323 -86 88 -116 110 -263 197 -91 55 -197 115 -235 135 -109
58 -109 57 -15 104 126 64 205 115 357 233 210 162 319 302 402 513 75 189 87
255 87 475 0 302 -37 452 -191 765 -112 230 -194 317 -387 414 -108 53 -195
82 -392 126 -120 27 -246 35 -440 27 -38 -1 -104 0 -145 2 -41 3 -82 3 -90 0z
m715 -177 c78 -20 168 -46 200 -58 124 -46 277 -146 306 -201 8 -15 7 -24 -5
-37 -28 -31 -19 -64 30 -111 45 -45 127 -168 178 -268 31 -61 32 -75 8 -68
-11 4 -25 -1 -33 -11 -28 -33 -144 -427 -305 -1031 l-59 -223 -58 -46 c-32
-25 -60 -43 -62 -41 -10 10 42 163 54 160 22 -5 49 8 56 26 4 9 31 116 61 237
87 349 182 699 230 844 33 102 41 137 33 148 -17 20 -57 16 -69 -7 -9 -17 -14
-18 -30 -7 -32 19 -52 -2 -83 -89 -25 -71 -114 -399 -183 -677 -15 -59 -29
-106 -31 -103 -2 2 30 175 71 383 79 395 87 461 60 487 -22 22 -57 20 -80 -5
-17 -19 -18 -22 -2 -50 16 -28 15 -36 -23 -221 -131 -628 -170 -830 -172 -897
-2 -74 -1 -77 41 -98 2 -1 -6 -34 -17 -74 -19 -66 -19 -75 -6 -96 15 -22 13
-24 -27 -50 -86 -54 -345 -180 -423 -205 -172 -56 -326 -57 -605 -2 -275 53
-434 135 -597 307 -144 153 -210 316 -220 548 -18 400 175 816 557 1200 293
295 501 382 900 375 151 -3 177 -6 305 -39z m764 -871 c1 -15 -12 -56 -28 -90
-52 -109 -159 -459 -241 -786 -17 -69 -35 -129 -40 -134 -6 -5 -5 5 0 25 5 19
50 189 100 379 120 455 192 691 201 659 4 -13 7 -37 8 -53z m-14 -385 c-10
-52 -25 -118 -35 -146 -26 -77 -82 -207 -86 -202 -4 3 67 267 113 422 24 83
29 43 8 -74z m-518 -343 c-3 -8 -6 -5 -6 6 -1 11 2 17 5 13 3 -3 4 -12 1 -19z
m77 -1191 c122 -76 186 -122 197 -142 26 -45 42 -187 30 -263 -15 -93 -37
-131 -104 -177 -53 -36 -66 -40 -132 -43 -95 -5 -168 25 -214 88 -39 54 -86
177 -102 265 -12 71 -9 441 5 463 4 7 30 -5 74 -34 37 -24 148 -95 246 -157z"/>
<path d="M9380 22123 c-37 -13 -38 -26 -33 -361 3 -199 1 -358 -5 -407 -15
-112 5 -148 73 -131 16 4 29 20 42 53 16 43 18 78 16 353 -3 387 -7 445 -39
476 -24 25 -29 26 -54 17z"/>
<path d="M5205 22096 c-72 -31 -170 -174 -261 -377 -81 -181 -224 -578 -224
-622 0 -96 198 -140 333 -73 148 72 289 251 360 454 25 73 30 103 31 187 2
170 -42 335 -89 335 -7 0 -17 18 -24 40 -8 27 -21 45 -41 55 -35 18 -46 18
-85 1z m75 -236 c55 -181 26 -341 -97 -527 -83 -126 -186 -203 -274 -203 -35
0 -40 3 -34 18 3 9 45 123 92 252 91 252 152 392 211 481 l36 57 28 -21 c15
-12 32 -38 38 -57z"/>
<path d="M6812 22080 c-292 -28 -525 -100 -677 -208 -203 -144 -367 -357 -473
-615 -25 -62 -72 -151 -104 -199 -32 -49 -62 -99 -67 -111 -12 -30 -34 -257
-27 -264 3 -3 12 0 21 7 13 11 15 -2 15 -118 0 -149 15 -241 59 -361 17 -47
31 -98 31 -114 0 -35 16 -67 34 -67 7 0 34 -35 61 -77 64 -101 199 -236 354
-352 68 -51 130 -95 138 -98 8 -3 13 -21 13 -49 0 -55 27 -75 66 -49 13 8 24
20 24 25 0 13 61 -18 76 -38 6 -9 25 -17 42 -18 16 -1 46 -8 66 -15 35 -13 36
-14 36 -64 0 -55 12 -75 45 -75 30 0 45 19 45 57 0 26 4 33 19 33 16 0 20 -8
23 -37 3 -33 7 -38 31 -41 22 -3 31 3 45 28 15 28 21 31 52 26 19 -3 49 -6 66
-6 l31 0 13 -102 c13 -93 17 -107 53 -154 69 -93 145 -99 268 -20 72 46 75 47
129 39 83 -11 124 -6 182 23 l53 27 120 -12 c66 -7 133 -18 150 -25 16 -8 57
-41 90 -75 83 -85 121 -94 248 -60 74 20 147 111 147 184 0 45 -30 101 -98
187 -40 51 -62 87 -62 104 0 14 12 64 26 110 43 136 26 215 -72 341 -42 53
-43 58 -29 79 178 272 255 522 255 830 0 275 -67 488 -230 732 -79 118 -168
209 -304 310 -163 120 -356 208 -581 263 -95 23 -271 31 -403 19z m363 -149
c44 -11 123 -34 175 -51 529 -178 874 -656 847 -1175 -7 -127 -28 -245 -64
-359 -73 -232 -285 -538 -457 -660 -73 -52 -204 -122 -212 -113 -7 7 62 401
82 467 16 52 11 76 -17 85 -47 15 -58 -14 -124 -356 -44 -230 -49 -248 -72
-258 -51 -23 -51 -21 -32 125 21 159 66 413 108 609 33 154 30 179 -17 173
-24 -3 -29 -10 -45 -73 -34 -137 -117 -562 -134 -693 -14 -109 -15 -137 -4
-154 15 -24 13 -26 -27 -34 -22 -4 -32 -3 -32 5 0 30 95 576 131 755 45 225
46 250 8 254 -14 2 -30 -3 -36 -10 -19 -24 -135 -611 -181 -913 -16 -106 -20
-120 -37 -120 -18 0 -20 6 -18 55 3 68 75 619 108 831 30 190 32 235 8 247
-23 12 -60 -2 -67 -25 -3 -10 -5 -36 -5 -58 1 -22 -11 -107 -25 -190 -29 -170
-88 -593 -107 -762 -12 -108 -13 -113 -36 -113 -16 0 -23 6 -23 20 0 41 121
1018 146 1176 14 91 24 176 22 191 -4 33 -32 52 -55 37 -26 -16 -89 -433 -174
-1146 -30 -248 -35 -278 -51 -278 -13 0 -18 8 -18 28 0 77 72 760 126 1204 20
163 34 308 30 321 -12 50 -76 40 -76 -11 0 -15 -13 -121 -30 -237 -46 -330
-102 -828 -136 -1208 -6 -73 -8 -77 -28 -71 -11 4 -22 7 -23 8 -3 2 61 1027
81 1308 13 185 12 232 -7 256 -12 15 -53 16 -63 1 -4 -7 -8 -66 -9 -133 -1
-67 -14 -267 -28 -446 -14 -179 -34 -461 -44 -628 -9 -167 -20 -308 -24 -313
-4 -7 -19 -5 -43 5 l-36 15 0 113 c0 303 54 1132 95 1458 12 101 12 118 -1
138 -28 44 -74 15 -74 -47 0 -21 -6 -84 -14 -142 -35 -248 -71 -730 -88 -1159
-6 -168 -12 -306 -14 -308 -1 -2 -12 2 -24 8 -19 10 -21 17 -15 78 3 37 19
245 36 462 56 737 92 1107 135 1353 16 94 9 127 -25 127 -32 0 -41 -24 -66
-172 -49 -290 -81 -607 -137 -1340 -18 -241 -35 -438 -38 -438 -3 0 -17 10
-33 23 -25 20 -27 25 -17 57 6 19 22 175 35 345 57 719 108 1180 157 1428 19
97 19 110 6 124 -21 20 -52 9 -67 -23 -44 -97 -130 -800 -181 -1479 -25 -337
-30 -379 -42 -367 -6 6 -6 36 1 83 6 41 17 182 26 314 29 442 79 994 111 1216
6 41 4 48 -15 58 -15 9 -27 9 -41 1 -19 -10 -20 -8 -20 38 l0 50 101 96 c165
159 284 249 382 287 116 47 434 63 572 30z m-1210 -1107 c-69 -546 -111 -843
-121 -853 -7 -8 -43 45 -85 124 -23 44 -36 74 -28 68 18 -17 44 -16 59 2 7 8
26 145 46 322 56 516 74 646 92 680 15 30 15 33 -2 52 -10 11 -26 21 -37 23
-15 2 -2 22 63 96 45 50 83 90 85 88 2 -2 -30 -273 -72 -602z m-229 222 c-3
-14 -26 -145 -51 -292 -25 -147 -48 -270 -51 -273 -13 -12 6 227 26 319 20 98
70 270 78 270 2 0 1 -11 -2 -24z m31 -383 c-3 -10 -5 -4 -5 12 0 17 2 24 5 18
2 -7 2 -21 0 -30z m-26 -226 c-12 -96 -21 -194 -22 -218 -1 -43 -1 -44 -11
-14 -9 23 -5 74 18 235 34 245 44 243 15 -3z m276 16 c-3 -10 -5 -2 -5 17 0
19 2 27 5 18 2 -10 2 -26 0 -35z m-25 -346 c-11 -141 -22 -261 -26 -264 -4 -4
-23 10 -43 30 -34 33 -36 38 -20 49 9 7 23 32 32 56 14 41 44 227 62 387 16
143 13 -3 -5 -258z m2094 -402 c30 -63 30 -94 -1 -185 -27 -79 -32 -162 -12
-196 7 -11 37 -51 68 -90 31 -38 62 -79 68 -92 28 -54 -21 -123 -99 -141 -67
-16 -67 -16 -138 53 -37 35 -82 71 -100 80 -32 16 -228 46 -302 46 -19 0 -60
-12 -90 -26 -48 -23 -69 -27 -160 -28 -100 -1 -107 -2 -150 -32 -141 -97 -175
-83 -205 88 -8 46 -15 88 -15 94 0 7 28 14 66 18 111 11 313 64 419 109 110
47 263 131 331 181 39 30 109 95 155 145 l84 91 29 -32 c15 -18 39 -55 52 -83z"/>
<path d="M9159 21981 l-24 -19 3 -383 c3 -419 3 -419 61 -419 31 0 44 8 58 35
14 25 6 705 -9 753 -6 21 -19 37 -35 43 -31 12 -27 12 -54 -10z"/>
<path d="M8924 21805 c-21 -14 -21 -19 -18 -377 2 -245 7 -371 15 -390 13 -31
45 -44 84 -34 39 10 45 33 36 147 -5 57 -9 213 -10 347 -1 133 -6 253 -11 266
-9 24 -46 56 -65 56 -6 0 -20 -7 -31 -15z"/>
<path d="M8731 21653 c-20 -17 -21 -28 -28 -369 l-6 -350 28 -22 c36 -28 50
-28 80 3 l25 24 0 341 0 341 -25 24 c-29 30 -45 31 -74 8z"/>
<path d="M8505 21506 c-15 -22 -15 -36 -6 -113 6 -48 11 -193 11 -321 l0 -233
25 -24 c29 -30 58 -32 85 -5 18 18 20 33 20 168 0 81 -5 226 -10 322 -11 196
-21 222 -78 228 -24 2 -34 -3 -47 -22z"/>
<path d="M8355 21400 c-18 -20 -18 -30 -1 -313 10 -163 23 -303 29 -317 30
-63 117 -43 117 28 1 109 -44 579 -56 600 -18 28 -64 29 -89 2z"/>
<path d="M9305 21135 c-284 -148 -790 -504 -816 -574 -13 -34 3 -69 36 -77 28
-7 31 -5 186 112 192 145 401 280 618 399 68 37 132 76 143 87 38 38 12 108
-40 108 -12 0 -69 -25 -127 -55z"/>
<path d="M9358 20926 c-158 -65 -755 -451 -883 -570 -50 -47 -60 -90 -27 -119
30 -28 61 -20 115 29 45 41 51 43 60 27 16 -30 39 -43 74 -43 44 0 66 12 208
114 66 47 182 118 257 157 76 39 148 84 162 99 13 16 46 40 74 54 76 39 102
87 66 127 -14 16 -14 19 5 38 24 24 27 59 9 84 -22 27 -59 29 -120 3z"/>
<path d="M16002 7103 c-11 -34 -10 -40 9 -55 27 -23 62 -23 82 0 27 30 20 48
-25 67 -24 10 -46 20 -49 22 -3 2 -11 -13 -17 -34z"/>
</g>
</svg>
