<svg version="1.0" xmlns="http://www.w3.org/2000/svg"
 width="3000px" height="3000px" viewBox="0 0 3000 3000"
 preserveAspectRatio="xMidYMid meet">

<g transform="translate(0.000000,3000) scale(0.100000,-0.100000)"
fill="#000000" stroke="none">
<path d="M11375 24272 c-99 -48 -195 -190 -195 -289 0 -90 33 -140 160 -244
97 -79 176 -112 264 -112 223 1 297 171 179 411 -90 183 -283 294 -408 234z
m141 -143 c56 -27 109 -87 146 -164 49 -106 50 -172 3 -193 -59 -27 -139 -6
-232 60 -44 32 -74 76 -87 131 -3 15 -11 27 -16 27 -32 0 35 111 84 141 39 24
50 24 102 -2z"/>
<path d="M10835 23486 c-221 -63 -350 -141 -464 -282 -158 -195 -241 -464
-241 -782 0 -192 21 -282 128 -557 51 -132 67 -162 96 -177 14 -7 43 -42 67
-78 58 -88 239 -266 319 -313 87 -50 244 -111 372 -143 227 -58 615 -37 852
45 127 45 311 175 386 275 96 127 140 304 140 561 -1 363 -87 633 -284 889
-116 151 -224 223 -499 335 -78 32 -212 88 -298 124 -250 105 -268 110 -404
114 -81 2 -136 -2 -170 -11z m365 -181 c63 -21 159 -60 214 -87 l99 -49 -145
-72 c-79 -40 -175 -94 -213 -121 -95 -67 -279 -255 -339 -344 -153 -231 -250
-523 -263 -795 l-6 -118 -34 33 c-35 34 -91 141 -124 237 -30 86 -61 322 -61
461 -1 221 78 499 183 645 l31 43 54 -24 c77 -34 165 -34 199 1 14 13 25 33
25 43 0 11 10 32 23 48 16 21 22 40 20 76 -1 44 1 49 25 54 15 3 32 8 37 10
33 13 170 -7 275 -41z m478 -265 c9 -15 23 -20 58 -20 88 0 274 -149 375 -302
133 -202 196 -480 186 -823 -7 -254 -41 -334 -189 -450 -198 -155 -357 -178
-736 -105 -230 44 -404 96 -522 155 -105 53 -123 66 -111 78 6 6 11 25 11 43
0 25 -8 39 -37 62 -37 30 -38 30 -37 103 2 140 87 466 159 609 82 163 231 341
379 454 100 77 379 214 436 216 8 0 21 -9 28 -20z"/>
<path d="M5215 22607 c-38 -19 -88 -37 -109 -40 -108 -17 -210 -231 -223 -469
-7 -129 7 -178 67 -232 42 -38 89 -51 150 -43 134 18 292 192 382 422 26 66
31 95 32 165 1 147 -54 221 -169 228 -52 3 -69 -1 -130 -31z m154 -138 c16
-48 13 -87 -14 -163 -48 -137 -171 -305 -244 -336 -81 -33 -111 22 -92 169 12
98 46 221 61 221 5 0 12 -4 15 -10 10 -17 61 -11 78 8 9 10 22 33 28 51 14 39
88 91 130 91 21 0 29 -7 38 -31z"/>
<path d="M6650 22206 c-146 -21 -187 -34 -233 -77 -22 -22 -46 -39 -52 -39
-14 0 -189 -116 -255 -169 -108 -86 -222 -209 -341 -366 -126 -166 -224 -401
-264 -629 -18 -103 -20 -369 -5 -494 35 -280 166 -558 350 -743 106 -107 198
-168 350 -235 117 -52 308 -111 385 -120 41 -5 55 -11 55 -23 0 -9 8 -38 18
-66 21 -58 48 -76 107 -73 33 3 43 8 55 33 20 40 80 105 97 105 43 0 192 196
346 457 94 160 121 216 156 328 43 138 115 448 136 580 9 61 26 127 36 147 19
35 19 46 9 165 -18 210 -52 388 -116 599 -39 129 -129 345 -175 415 -44 69
-119 133 -207 176 l-76 38 -140 2 c-78 1 -184 -4 -236 -11z m163 -195 c141
-37 221 -76 279 -140 64 -69 141 -197 185 -306 32 -78 78 -253 70 -261 -2 -3
-40 25 -83 62 -104 89 -168 130 -239 155 -77 27 -228 36 -332 19 -293 -46
-645 -246 -829 -470 -32 -38 -59 -68 -61 -66 -5 5 22 113 54 211 57 179 190
380 369 559 l99 98 12 -29 c19 -47 53 -62 151 -69 115 -9 137 3 187 92 34 60
37 71 31 115 -8 58 -7 59 107 30z m37 -657 c201 -38 394 -147 498 -280 l35
-45 -6 -133 c-14 -288 -65 -460 -263 -878 -162 -345 -249 -443 -439 -493 -179
-46 -350 14 -532 188 -98 94 -206 265 -271 433 -29 72 -59 215 -71 333 -11
100 -10 105 9 118 16 11 20 24 19 62 -2 39 5 62 36 117 87 158 200 282 375
413 113 84 179 121 280 155 90 31 204 34 330 10z m-1200 -517 c0 -36 -6 -71
-13 -81 -14 -19 -14 -4 -1 102 8 61 14 52 14 -21z m9 -332 c7 -77 21 -180 32
-230 22 -105 23 -114 3 -60 -29 76 -53 201 -63 320 -14 156 -14 154 3 130 7
-12 18 -78 25 -160z"/>
<path d="M10046 20335 c-8 -8 -18 -40 -21 -70 -7 -51 -4 -63 29 -136 48 -105
195 -524 291 -828 42 -133 94 -292 116 -353 l39 -110 -181 176 c-99 97 -192
179 -205 182 -42 11 -74 -4 -90 -41 -30 -72 -6 -128 52 -123 32 2 43 -6 147
-107 61 -61 165 -173 231 -250 149 -176 169 -195 204 -195 31 0 75 40 87 78 8
27 -11 110 -92 400 -75 270 -132 429 -309 873 -85 213 -154 399 -154 413 0 38
-64 106 -100 106 -16 0 -35 -7 -44 -15z"/>
</g>
</svg>
